<svg class="animated" id="freepik_stories-fuel-station" xmlns="http://www.w3.org/2000/svg" viewBox="0 0 500 500" version="1.1" xmlns:xlink="http://www.w3.org/1999/xlink" xmlns:svgjs="http://svgjs.com/svgjs"><style>svg#freepik_stories-fuel-station:not(.animated) .animable {opacity: 0;}svg#freepik_stories-fuel-station.animated #freepik--Vehicle--inject-1 {animation: 1s 1 forwards cubic-bezier(.36,-0.01,.5,1.38) lightSpeedRight,6s Infinite  linear shake;animation-delay: 0s,1s;}            @keyframes lightSpeedRight {              from {                transform: translate3d(50%, 0, 0) skewX(-20deg);                opacity: 0;              }              60% {                transform: skewX(10deg);                opacity: 1;              }              80% {                transform: skewX(-2deg);              }              to {                opacity: 1;                transform: translate3d(0, 0, 0);              }            }                    @keyframes shake {                10%, 90% {                    transform: translate3d(-1px, 0, 0);                  }                  20%, 80% {                    transform: translate3d(2px, 0, 0);                  }                  30%, 50%, 70% {                    transform: translate3d(-4px, 0, 0);                  }                  40%, 60% {                    transform: translate3d(4px, 0, 0);                  }            }        .animator-hidden { display: none; }</style><g id="freepik--background-complete--inject-1" class="animable animator-hidden" style="transform-origin: 250px 228.23px;"><rect y="382.4" width="500" height="0.25" style="fill: rgb(235, 235, 235); transform-origin: 250px 382.525px;" id="elsnzhk3lwbkq" class="animable"></rect><rect x="416.78" y="398.49" width="33.12" height="0.25" style="fill: rgb(235, 235, 235); transform-origin: 433.34px 398.615px;" id="elt3454dnw9f" class="animable"></rect><rect x="322.53" y="401.21" width="8.69" height="0.25" style="fill: rgb(235, 235, 235); transform-origin: 326.875px 401.335px;" id="ele8zoxgkx4r" class="animable"></rect><rect x="396.59" y="389.21" width="19.19" height="0.25" style="fill: rgb(235, 235, 235); transform-origin: 406.185px 389.335px;" id="elmgh10baiwr" class="animable"></rect><rect x="52.46" y="390.89" width="43.19" height="0.25" style="fill: rgb(235, 235, 235); transform-origin: 74.055px 391.015px;" id="elvuroa7e2n" class="animable"></rect><rect x="104.56" y="390.89" width="6.33" height="0.25" style="fill: rgb(235, 235, 235); transform-origin: 107.725px 391.015px;" id="elpugg17ps11" class="animable"></rect><rect x="131.47" y="395.11" width="93.68" height="0.25" style="fill: rgb(235, 235, 235); transform-origin: 178.31px 395.235px;" id="ellkx0suvssjh" class="animable"></rect><path d="M237,337.8H43.91a5.71,5.71,0,0,1-5.7-5.71V60.66A5.71,5.71,0,0,1,43.91,55H237a5.71,5.71,0,0,1,5.71,5.71V332.09A5.71,5.71,0,0,1,237,337.8ZM43.91,55.2a5.46,5.46,0,0,0-5.45,5.46V332.09a5.46,5.46,0,0,0,5.45,5.46H237a5.47,5.47,0,0,0,5.46-5.46V60.66A5.47,5.47,0,0,0,237,55.2Z" style="fill: rgb(235, 235, 235); transform-origin: 140.46px 196.4px;" id="elyxx2awk4z9" class="animable"></path><path d="M453.31,337.8H260.21a5.72,5.72,0,0,1-5.71-5.71V60.66A5.72,5.72,0,0,1,260.21,55h193.1A5.71,5.71,0,0,1,459,60.66V332.09A5.71,5.71,0,0,1,453.31,337.8ZM260.21,55.2a5.47,5.47,0,0,0-5.46,5.46V332.09a5.47,5.47,0,0,0,5.46,5.46h193.1a5.47,5.47,0,0,0,5.46-5.46V60.66a5.47,5.47,0,0,0-5.46-5.46Z" style="fill: rgb(235, 235, 235); transform-origin: 356.75px 196.4px;" id="el0012x3ybyawhzg" class="animable"></path><path d="M230.19,98.8a4.43,4.43,0,0,0-4.43-4.43,4.49,4.49,0,0,0-1.27.19,8.71,8.71,0,0,0,.1-1.36,9.36,9.36,0,0,0-9.37-9.37,9.85,9.85,0,0,0-1.73.16,8.19,8.19,0,0,0-15.19,4.14h-.13a7.55,7.55,0,1,0,0,15.1h27.72A4.43,4.43,0,0,0,230.19,98.8Z" style="fill: rgb(245, 245, 245); transform-origin: 210.405px 91.6402px;" id="el4ezgrup1bn7" class="animable"></path><path d="M364.07,167.7a4.42,4.42,0,0,0-4.42-4.43,4.5,4.5,0,0,0-1.28.19,8.71,8.71,0,0,0,.1-1.36,9.37,9.37,0,0,0-9.37-9.37,9.74,9.74,0,0,0-1.72.16A8.19,8.19,0,0,0,332.19,157h-.14a7.55,7.55,0,1,0,0,15.09h27.72A4.42,4.42,0,0,0,364.07,167.7Z" style="fill: rgb(245, 245, 245); transform-origin: 344.148px 160.522px;" id="eljblsawpuop" class="animable"></path><path d="M311.77,115.66a2.75,2.75,0,0,0-2.75-2.75,2.56,2.56,0,0,0-.79.12,6,6,0,0,0,.06-.85,5.83,5.83,0,0,0-5.83-5.82,5.32,5.32,0,0,0-1.07.1,5.1,5.1,0,0,0-9.45,2.57h-.08a4.69,4.69,0,1,0,0,9.38h17.23A2.75,2.75,0,0,0,311.77,115.66Z" style="fill: rgb(245, 245, 245); transform-origin: 299.47px 111.215px;" id="el9lsstvp8hie" class="animable"></path><path d="M424,107a2.75,2.75,0,0,0-2.75-2.75,2.56,2.56,0,0,0-.79.12,6,6,0,0,0,.06-.85,5.83,5.83,0,0,0-5.83-5.83,5.39,5.39,0,0,0-1.07.11,5.1,5.1,0,0,0-9.45,2.57h-.08a4.69,4.69,0,0,0,0,9.38h17.23A2.75,2.75,0,0,0,424,107Z" style="fill: rgb(245, 245, 245); transform-origin: 411.7px 102.555px;" id="eljrkjkoc070h" class="animable"></path><path d="M107.78,105.59a2.75,2.75,0,0,0-2.75-2.75,2.61,2.61,0,0,0-.79.12,6,6,0,0,0,.06-.85,5.81,5.81,0,0,0-5.82-5.82,5.49,5.49,0,0,0-1.08.1A5.09,5.09,0,0,0,88,99h-.08a4.69,4.69,0,1,0,0,9.38h17.23A2.75,2.75,0,0,0,107.78,105.59Z" style="fill: rgb(245, 245, 245); transform-origin: 95.5052px 101.193px;" id="elp8vp8dsor7" class="animable"></path><path d="M183.07,168.32a2.76,2.76,0,0,0-2.75-2.76,2.9,2.9,0,0,0-.79.12,5.93,5.93,0,0,0,.06-.84,5.83,5.83,0,0,0-5.83-5.83,5.39,5.39,0,0,0-1.07.1,5.1,5.1,0,0,0-9.45,2.57h-.08a4.7,4.7,0,0,0,0,9.39h17.23A2.75,2.75,0,0,0,183.07,168.32Z" style="fill: rgb(245, 245, 245); transform-origin: 170.873px 163.87px;" id="elzp56heottg" class="animable"></path><path d="M146.62,223.29a9.43,9.43,0,0,0,.26-1.72c.21-3.57,3.61-3,6.51-3.49,2.27-.38-3.73-6.1.84-7.94a4,4,0,0,0,2.2-1.54,2.59,2.59,0,0,0-1-3.16,6.06,6.06,0,0,0-3.46-.87c-.75-.91-.14-2.27.58-3.2s1.6-2,1.33-3.11c-.41-1.72-2.82-1.78-4.56-1.45-.64-1-.63-2.34-.94-3.52s-1.25-2.42-2.46-2.28-1.84,1.43-3,1.7c-1.31.3-2.43-.85-3.45-1.71s-2.81-1.4-3.51-.27c-.42.69-.17,1.63-.61,2.3-.76,1.17-2.56.45-3.67-.38s-2.9-1.57-3.68-.42a4.85,4.85,0,0,0-.44,1.19c-.52,1.52-2.17,2.28-3.46,3.26s-2.3,2.92-1.21,4.11c.54.59,1.48.83,1.74,1.58.34.94-.62,1.78-1.38,2.42-1.26,1.08-1.49,4.29.18,5.16.7.37,1.73.49,1.9,1.26s-.55,1.23-1,1.76a3.31,3.31,0,0,0,1,4.93c.4.2.89.35,1,.77a1.5,1.5,0,0,1-.1.93,5.14,5.14,0,0,0-.16,1.79.85.85,0,0,0,.22.56.87.87,0,0,0,.53.15c2.41.11,3.57-.75,5,1.35a1.69,1.69,0,0,0,.5.53,1.55,1.55,0,0,0,.67.17c1.65.13,2.73-.9,4.25-1.09,2.1-.27,2.54.81,4.39,1.68C144.66,226.11,146.07,225.27,146.62,223.29Z" style="fill: rgb(235, 235, 235); transform-origin: 139.432px 207.751px;" id="elckio2sa245d" class="animable"></path><path d="M118.88,220.29a8.53,8.53,0,0,0,.26-1.72c.21-3.57,3.62-3,6.52-3.49,2.26-.38-3.73-6.1.83-7.94a4,4,0,0,0,2.2-1.54,2.58,2.58,0,0,0-1-3.16,6.12,6.12,0,0,0-3.47-.87c-.74-.91-.14-2.27.58-3.19s1.61-2,1.33-3.12c-.41-1.72-2.81-1.78-4.55-1.45-.64-1-.63-2.34-.94-3.52s-1.25-2.42-2.47-2.27-1.84,1.43-3,1.69c-1.3.31-2.43-.84-3.45-1.71s-2.81-1.4-3.51-.26c-.42.68-.17,1.63-.61,2.3-.75,1.16-2.55.44-3.67-.39s-2.89-1.57-3.68-.42a4.83,4.83,0,0,0-.43,1.19c-.53,1.53-2.18,2.29-3.46,3.26s-2.3,2.92-1.22,4.12c.54.59,1.48.82,1.75,1.57.33.94-.63,1.78-1.38,2.43-1.26,1.07-1.49,4.28.17,5.16.7.37,1.73.48,1.9,1.25s-.54,1.23-1,1.76a3.32,3.32,0,0,0,1,4.94c.4.19.9.35,1.05.76a1.62,1.62,0,0,1-.1.94,4.86,4.86,0,0,0-.16,1.78.79.79,0,0,0,.22.56.8.8,0,0,0,.52.15c2.41.11,3.57-.74,5,1.35a1.88,1.88,0,0,0,.51.54,1.64,1.64,0,0,0,.66.16c1.66.14,2.74-.9,4.25-1.09,2.1-.27,2.55.82,4.39,1.69C116.92,223.11,118.33,222.27,118.88,220.29Z" style="fill: rgb(235, 235, 235); transform-origin: 111.692px 204.752px;" id="elu9o0acbrsz" class="animable"></path><path d="M116.21,202.63a8.64,8.64,0,0,0,.26-1.72c.21-3.57,3.62-3,6.51-3.49,2.27-.38-3.73-6.1.84-7.94a4,4,0,0,0,2.2-1.54,2.6,2.6,0,0,0-1-3.16,6.12,6.12,0,0,0-3.47-.87c-.74-.91-.14-2.27.58-3.2s1.61-2,1.33-3.11c-.41-1.72-2.82-1.78-4.55-1.45-.65-1-.63-2.34-.94-3.52s-1.26-2.42-2.47-2.28-1.84,1.43-3,1.7c-1.3.3-2.43-.85-3.45-1.71s-2.81-1.4-3.51-.27c-.42.69-.17,1.63-.61,2.31-.76,1.16-2.55.44-3.67-.39s-2.9-1.57-3.68-.42a4.45,4.45,0,0,0-.43,1.19C96.67,174.28,95,175,93.74,176s-2.3,2.92-1.22,4.11c.54.59,1.48.83,1.75,1.58.33.94-.63,1.78-1.39,2.42-1.26,1.08-1.49,4.29.18,5.16.7.37,1.73.49,1.9,1.26s-.55,1.23-1,1.76a3.31,3.31,0,0,0,1,4.93c.4.2.89.35,1,.77a1.57,1.57,0,0,1-.09.93,4.71,4.71,0,0,0-.16,1.79.84.84,0,0,0,.21.56.91.91,0,0,0,.53.15c2.41.11,3.57-.75,5,1.35a1.69,1.69,0,0,0,.5.53,1.55,1.55,0,0,0,.67.17c1.65.13,2.74-.9,4.25-1.09,2.1-.27,2.54.81,4.39,1.68C114.25,205.45,115.66,204.61,116.21,202.63Z" style="fill: rgb(235, 235, 235); transform-origin: 109.041px 187.088px;" id="el79txvi87gvn" class="animable"></path><path d="M97.94,211.42a8.42,8.42,0,0,0,.26-1.72c.21-3.56,3.62-3,6.51-3.48,2.27-.38-3.73-6.1.84-7.95a4,4,0,0,0,2.2-1.53,2.61,2.61,0,0,0-1-3.17,6.28,6.28,0,0,0-3.47-.87c-.74-.9-.14-2.26.58-3.19s1.6-2,1.33-3.11c-.41-1.72-2.82-1.79-4.55-1.45-.65-1-.63-2.34-1-3.52s-1.25-2.43-2.46-2.28-1.84,1.43-3,1.7c-1.3.3-2.43-.85-3.45-1.71s-2.81-1.41-3.51-.27c-.42.68-.17,1.63-.61,2.3-.76,1.16-2.55.44-3.67-.38s-2.9-1.57-3.68-.43a4.92,4.92,0,0,0-.44,1.2c-.52,1.52-2.17,2.28-3.45,3.26s-2.3,2.92-1.22,4.11c.54.59,1.48.83,1.75,1.58.33.94-.63,1.78-1.39,2.42-1.26,1.07-1.49,4.28.18,5.16.7.37,1.73.48,1.9,1.26s-.55,1.22-1,1.76a3.31,3.31,0,0,0,1,4.93c.4.19.89.35,1,.77a1.58,1.58,0,0,1-.09.93,4.71,4.71,0,0,0-.16,1.79.86.86,0,0,0,.21.56.89.89,0,0,0,.53.15c2.41.1,3.57-.75,5,1.35a1.69,1.69,0,0,0,.5.53,1.55,1.55,0,0,0,.67.17c1.65.13,2.74-.9,4.25-1.09,2.1-.27,2.54.81,4.39,1.68C96,214.25,97.39,213.41,97.94,211.42Z" style="fill: rgb(235, 235, 235); transform-origin: 90.721px 195.889px;" id="elsemamkv77co" class="animable"></path><path d="M79.47,207.36a8.42,8.42,0,0,0,.26-1.72c.21-3.57,3.62-3,6.52-3.49,2.26-.38-3.73-6.09.83-7.94a4.05,4.05,0,0,0,2.21-1.53,2.6,2.6,0,0,0-1-3.17,6.1,6.1,0,0,0-3.46-.87c-.75-.9-.14-2.27.58-3.19s1.6-2,1.33-3.12c-.42-1.72-2.82-1.78-4.56-1.45-.64-1-.63-2.34-.94-3.52s-1.25-2.42-2.46-2.27-1.85,1.43-3,1.69c-1.3.31-2.43-.84-3.45-1.71s-2.8-1.4-3.51-.26c-.42.68-.17,1.63-.6,2.3-.76,1.16-2.56.44-3.68-.38s-2.89-1.57-3.68-.43a4.83,4.83,0,0,0-.43,1.19c-.53,1.53-2.18,2.29-3.46,3.26s-2.3,2.93-1.21,4.12c.53.59,1.47.83,1.74,1.58.33.93-.62,1.77-1.38,2.42-1.26,1.07-1.49,4.28.18,5.16.7.37,1.72.48,1.89,1.25s-.54,1.23-1,1.76a3.31,3.31,0,0,0,1,4.94c.4.19.89.35,1,.77a1.59,1.59,0,0,1-.1.93,4.88,4.88,0,0,0-.16,1.78.79.79,0,0,0,.22.56.75.75,0,0,0,.53.15c2.41.11,3.57-.74,5,1.35a1.73,1.73,0,0,0,.5.54,1.64,1.64,0,0,0,.66.16c1.66.14,2.74-.89,4.25-1.09,2.1-.26,2.55.82,4.4,1.69C77.52,210.18,78.93,209.34,79.47,207.36Z" style="fill: rgb(235, 235, 235); transform-origin: 72.2972px 191.822px;" id="eltmnua8kjgv" class="animable"></path><path d="M79.23,227.11a6.59,6.59,0,0,0,.21-1.35c.16-2.81,2.84-2.37,5.13-2.75,1.78-.3-2.94-4.8.65-6.25A3.18,3.18,0,0,0,87,215.55a2,2,0,0,0-.78-2.49,4.86,4.86,0,0,0-2.73-.69c-.59-.71-.11-1.78.45-2.51s1.27-1.56,1-2.45c-.32-1.36-2.22-1.41-3.59-1.14a10.27,10.27,0,0,1-.74-2.78c-.24-.93-1-1.91-1.94-1.79s-1.45,1.13-2.33,1.33-1.91-.66-2.72-1.34-2.21-1.1-2.76-.21c-.33.54-.13,1.28-.48,1.81-.59.92-2,.35-2.89-.3s-2.28-1.24-2.9-.33a3.63,3.63,0,0,0-.34.94c-.42,1.2-1.71,1.79-2.72,2.56s-1.81,2.3-1,3.24c.42.47,1.17.65,1.37,1.24.27.74-.49,1.4-1.08,1.91-1,.85-1.18,3.37.14,4.06.55.3,1.36.38,1.49,1s-.43,1-.8,1.39a2.61,2.61,0,0,0,.8,3.88c.32.15.7.28.82.61a1.24,1.24,0,0,1-.07.73,4,4,0,0,0-.13,1.41.51.51,0,0,0,.59.56c1.89.08,2.81-.59,4,1.06a1.31,1.31,0,0,0,.39.42,1.18,1.18,0,0,0,.52.13c1.31.11,2.16-.7,3.35-.86,1.65-.21,2,.64,3.46,1.33C77.69,229.34,78.8,228.67,79.23,227.11Z" style="fill: rgb(235, 235, 235); transform-origin: 73.5917px 214.883px;" id="elnc8hkcj1gvf" class="animable"></path><path d="M68.88,220.29a7.87,7.87,0,0,0,.26-1.72c.22-3.57,3.62-3,6.52-3.49,2.26-.38-3.73-6.1.83-7.94a4,4,0,0,0,2.21-1.54,2.59,2.59,0,0,0-1-3.16,6.06,6.06,0,0,0-3.46-.87c-.75-.91-.14-2.27.58-3.19s1.6-2,1.33-3.12c-.41-1.72-2.82-1.78-4.56-1.45-.64-1-.63-2.34-.94-3.52s-1.25-2.42-2.46-2.27-1.84,1.43-3,1.69c-1.31.31-2.43-.84-3.45-1.71s-2.81-1.4-3.51-.26c-.43.68-.17,1.63-.61,2.3-.76,1.16-2.56.44-3.67-.39s-2.9-1.57-3.68-.42a4.47,4.47,0,0,0-.44,1.19c-.53,1.53-2.17,2.29-3.46,3.26s-2.3,2.92-1.21,4.12c.54.59,1.48.82,1.74,1.57.34.94-.62,1.78-1.38,2.43-1.26,1.07-1.49,4.28.18,5.16.7.37,1.73.48,1.9,1.25s-.55,1.23-1,1.76a3.33,3.33,0,0,0,1,4.94c.4.19.89.35,1,.76a1.54,1.54,0,0,1-.1.94,5.09,5.09,0,0,0-.16,1.78.79.79,0,0,0,.22.56.81.81,0,0,0,.53.15c2.41.11,3.57-.74,5,1.35a1.84,1.84,0,0,0,.5.54,1.69,1.69,0,0,0,.67.16c1.65.14,2.73-.9,4.25-1.09,2.1-.27,2.54.82,4.39,1.69C66.93,223.11,68.34,222.27,68.88,220.29Z" style="fill: rgb(235, 235, 235); transform-origin: 61.7018px 204.752px;" id="elho89sxjnuq" class="animable"></path><path d="M97.94,189.7A8.64,8.64,0,0,0,98.2,188c.21-3.57,3.62-3,6.51-3.49,2.27-.38-3.73-6.1.84-7.94a4,4,0,0,0,2.2-1.54,2.6,2.6,0,0,0-1-3.16,6.12,6.12,0,0,0-3.47-.87c-.74-.91-.14-2.27.58-3.19s1.6-2,1.33-3.12c-.41-1.72-2.82-1.78-4.55-1.45-.65-1-.63-2.34-1-3.52s-1.25-2.42-2.46-2.28-1.84,1.43-3,1.7c-1.3.31-2.43-.85-3.45-1.71s-2.81-1.4-3.51-.26c-.42.68-.17,1.63-.61,2.3-.76,1.16-2.55.44-3.67-.39s-2.9-1.57-3.68-.42a4.85,4.85,0,0,0-.44,1.19c-.52,1.52-2.17,2.28-3.45,3.26s-2.3,2.92-1.22,4.12c.54.58,1.48.82,1.75,1.57.33.94-.63,1.78-1.39,2.42-1.26,1.08-1.49,4.29.18,5.17.7.36,1.73.48,1.9,1.25s-.55,1.23-1,1.76a3.31,3.31,0,0,0,1,4.93c.4.2.89.35,1,.77a1.57,1.57,0,0,1-.09.93,4.71,4.71,0,0,0-.16,1.79.82.82,0,0,0,.21.56.89.89,0,0,0,.53.15c2.41.11,3.57-.74,5,1.35a1.69,1.69,0,0,0,.5.53,1.55,1.55,0,0,0,.67.17c1.65.14,2.74-.9,4.25-1.09,2.1-.27,2.54.81,4.39,1.68C96,192.52,97.39,191.68,97.94,189.7Z" style="fill: rgb(235, 235, 235); transform-origin: 90.7206px 174.175px;" id="el6xyvd9iylpj" class="animable"></path><path d="M121.66,190.91a8.42,8.42,0,0,0,.26-1.72c.21-3.57,3.62-3,6.51-3.49,2.27-.38-3.73-6.09.84-7.94a4,4,0,0,0,2.2-1.53,2.61,2.61,0,0,0-1-3.17,6.12,6.12,0,0,0-3.47-.87c-.74-.9-.14-2.27.58-3.19s1.61-2,1.33-3.12c-.41-1.72-2.81-1.78-4.55-1.45-.64-1-.63-2.34-.94-3.52s-1.26-2.42-2.47-2.27-1.84,1.43-3,1.69c-1.3.31-2.43-.84-3.45-1.71s-2.81-1.4-3.51-.26c-.42.68-.17,1.63-.61,2.3-.76,1.16-2.55.44-3.67-.38s-2.9-1.57-3.68-.43a4.83,4.83,0,0,0-.43,1.19c-.53,1.53-2.18,2.29-3.46,3.26s-2.3,2.93-1.22,4.12c.54.59,1.48.83,1.75,1.58.33.93-.63,1.77-1.39,2.42-1.26,1.07-1.49,4.28.18,5.16.7.37,1.73.48,1.9,1.25s-.55,1.23-1,1.76a3.32,3.32,0,0,0,1,4.94c.4.19.89.35,1,.77a1.59,1.59,0,0,1-.09.93,4.67,4.67,0,0,0-.16,1.78.82.82,0,0,0,.21.56.78.78,0,0,0,.53.15c2.41.11,3.57-.74,5,1.35a1.73,1.73,0,0,0,.5.54,1.69,1.69,0,0,0,.67.16c1.65.14,2.74-.89,4.25-1.09,2.1-.26,2.54.82,4.39,1.69C119.7,193.73,121.11,192.89,121.66,190.91Z" style="fill: rgb(235, 235, 235); transform-origin: 114.466px 175.372px;" id="elpd4njhdsqcg" class="animable"></path><path d="M136.07,200.62a8.64,8.64,0,0,0,.26-1.72c.21-3.57,3.61-3,6.51-3.49,2.27-.38-3.73-6.1.84-7.94a4,4,0,0,0,2.2-1.54,2.6,2.6,0,0,0-1-3.16,6.12,6.12,0,0,0-3.47-.87c-.74-.91-.14-2.27.58-3.19s1.6-2,1.33-3.12c-.41-1.72-2.82-1.78-4.55-1.45-.65-1-.63-2.34-.95-3.52s-1.25-2.42-2.46-2.27-1.84,1.43-3,1.69c-1.3.31-2.43-.85-3.45-1.71s-2.81-1.4-3.51-.26c-.42.68-.17,1.63-.61,2.3-.76,1.16-2.56.44-3.67-.39s-2.9-1.57-3.68-.42a4.85,4.85,0,0,0-.44,1.19c-.52,1.53-2.17,2.28-3.45,3.26s-2.3,2.92-1.22,4.12c.54.59,1.48.82,1.75,1.57.33.94-.63,1.78-1.39,2.43-1.26,1.07-1.49,4.28.18,5.16.7.36,1.73.48,1.9,1.25s-.55,1.23-1,1.76a3.32,3.32,0,0,0,1,4.94c.4.19.89.34,1,.76a1.57,1.57,0,0,1-.09.93,4.71,4.71,0,0,0-.16,1.79.78.78,0,0,0,.21.56.89.89,0,0,0,.53.15c2.41.11,3.57-.74,5,1.35a1.69,1.69,0,0,0,.5.53,1.55,1.55,0,0,0,.67.17c1.65.14,2.74-.9,4.25-1.09,2.1-.27,2.54.82,4.39,1.68C134.11,203.44,135.52,202.6,136.07,200.62Z" style="fill: rgb(235, 235, 235); transform-origin: 128.876px 185.082px;" id="eljlyvcfunw2" class="animable"></path><path d="M131.7,212.89s-6,8.52-8.11,11.22-12.46,19.53-13.88,30.66c-.15,1.19-.3,2.21-.44,3.11,4.47,29.49,3.77,103.46,3.61,112.7H98.72c-.13-10.42-1.33-125.65-1.78-128.56-.46-3.08-6.38-14.8-15.53-19.61s-17-20.74-17-20.74h2.91s5.41,9.76,13.1,15.17a31,31,0,0,0,3.45,2,49.21,49.21,0,0,1,3.06-17.22l1.57,1.45c-2.12,8.7-1.84,14.27-1.2,17.47a31.53,31.53,0,0,1,7.95,5.32c8-10.37,12.46-34.09,12.46-34.09l2,1.12a120.81,120.81,0,0,1-2.63,14.55c-1.5,6.13-5.89,17.69-7.94,22.94a54.22,54.22,0,0,1,6,11.31,5,5,0,0,1,.77-.93c5.2-4.69,15-26.88,15-26.88,2.37-5.16-1.24-18.7-1.24-18.7h2.72l1.22,11.84,6.86-7.48,1.25,1L124.43,210l-3.74,11.84,9.76-10.8Z" style="fill: rgb(230, 230, 230); transform-origin: 98.065px 281.175px;" id="ely5l2vpnjw5m" class="animable"></path><path d="M319.11,255.06a5.72,5.72,0,0,1-.2-1.32c-.17-2.74-2.78-2.3-5-2.68-1.74-.29,2.86-4.67-.64-6.09a3,3,0,0,1-1.69-1.18,2,2,0,0,1,.76-2.43,4.69,4.69,0,0,1,2.66-.66c.57-.7.1-1.74-.45-2.45s-1.23-1.52-1-2.39c.32-1.32,2.16-1.37,3.5-1.11a9.76,9.76,0,0,0,.72-2.71c.24-.9,1-1.86,1.89-1.74s1.41,1.1,2.27,1.3,1.87-.65,2.65-1.31,2.15-1.08,2.69-.21c.33.53.13,1.25.47,1.77.58.89,2,.34,2.82-.29s2.22-1.21,2.82-.33a3.31,3.31,0,0,1,.33.91c.41,1.17,1.67,1.76,2.66,2.51s1.76,2.24.93,3.15c-.41.45-1.14.64-1.34,1.21-.26.72.48,1.37,1.06,1.86,1,.82,1.14,3.29-.14,4-.53.28-1.32.37-1.45,1s.42.94.77,1.35a2.54,2.54,0,0,1-.77,3.79c-.31.15-.69.27-.8.59a1.24,1.24,0,0,0,.07.71,3.55,3.55,0,0,1,.12,1.37.63.63,0,0,1-.16.44.7.7,0,0,1-.41.11c-1.85.08-2.74-.57-3.87,1a1.21,1.21,0,0,1-.38.4,1.1,1.1,0,0,1-.51.13c-1.27.11-2.1-.69-3.26-.83-1.61-.21-1.95.62-3.37,1.29C320.61,257.23,319.52,256.58,319.11,255.06Z" style="fill: rgb(235, 235, 235); transform-origin: 324.619px 243.147px;" id="els1y4thib2z9" class="animable"></path><path d="M340.39,252.76a6.32,6.32,0,0,1-.2-1.32c-.17-2.74-2.78-2.3-5-2.68-1.74-.29,2.86-4.67-.64-6.09a3,3,0,0,1-1.69-1.18,2,2,0,0,1,.76-2.43,4.69,4.69,0,0,1,2.66-.66c.57-.7.1-1.74-.45-2.45s-1.23-1.52-1-2.39c.32-1.32,2.16-1.37,3.5-1.11a9.76,9.76,0,0,0,.72-2.71c.24-.9,1-1.85,1.89-1.74s1.41,1.1,2.27,1.3,1.87-.65,2.65-1.31,2.15-1.08,2.69-.21c.33.53.13,1.26.47,1.77.58.89,2,.34,2.82-.29s2.22-1.21,2.82-.33a3.31,3.31,0,0,1,.33.91c.41,1.17,1.67,1.76,2.66,2.51s1.76,2.24.93,3.15c-.41.45-1.14.64-1.34,1.21s.48,1.37,1.06,1.86c1,.82,1.14,3.29-.14,4-.53.28-1.32.37-1.45,1s.42.95.78,1.35a2.55,2.55,0,0,1-.78,3.79c-.31.15-.69.27-.8.59a1.24,1.24,0,0,0,.07.71,3.58,3.58,0,0,1,.12,1.38.62.62,0,0,1-.16.43.7.7,0,0,1-.41.11c-1.85.08-2.74-.57-3.86,1a1.35,1.35,0,0,1-.39.4,1.1,1.1,0,0,1-.51.13c-1.27.11-2.1-.69-3.26-.83-1.61-.21-1.95.62-3.37,1.29C341.89,254.93,340.8,254.28,340.39,252.76Z" style="fill: rgb(235, 235, 235); transform-origin: 345.899px 240.847px;" id="eljusls2ne0i" class="animable"></path><path d="M342.44,239.21a6.32,6.32,0,0,1-.2-1.32c-.17-2.74-2.78-2.31-5-2.68-1.74-.29,2.86-4.68-.64-6.09a3,3,0,0,1-1.69-1.18,2,2,0,0,1,.76-2.43,4.69,4.69,0,0,1,2.66-.66c.57-.7.11-1.74-.45-2.45s-1.23-1.52-1-2.39c.32-1.33,2.16-1.37,3.5-1.12a9.6,9.6,0,0,0,.72-2.7c.24-.91,1-1.86,1.89-1.74s1.41,1.09,2.27,1.3,1.87-.65,2.65-1.31,2.15-1.08,2.69-.21c.33.52.13,1.25.47,1.77.58.89,2,.34,2.82-.3s2.22-1.2,2.82-.32a3.2,3.2,0,0,1,.33.91c.41,1.17,1.67,1.75,2.66,2.5s1.76,2.25.93,3.16c-.41.45-1.13.64-1.34,1.21-.25.72.48,1.36,1.06,1.86,1,.82,1.15,3.29-.13,4-.54.28-1.33.37-1.46,1s.42.94.78,1.35a2.55,2.55,0,0,1-.78,3.79c-.31.15-.69.27-.8.59a1.24,1.24,0,0,0,.07.71,3.74,3.74,0,0,1,.13,1.37.51.51,0,0,1-.58.55c-1.84.08-2.74-.57-3.86,1a1.28,1.28,0,0,1-.39.41,1.24,1.24,0,0,1-.51.13c-1.27.1-2.1-.69-3.26-.84-1.61-.2-2,.63-3.37,1.3C343.94,241.38,342.86,240.73,342.44,239.21Z" style="fill: rgb(235, 235, 235); transform-origin: 347.951px 227.299px;" id="elw784eqpoxiq" class="animable"></path><path d="M356.45,246a6.35,6.35,0,0,1-.19-1.32c-.17-2.74-2.78-2.31-5-2.68-1.74-.29,2.86-4.68-.64-6.09a3,3,0,0,1-1.69-1.18,2,2,0,0,1,.76-2.43,4.69,4.69,0,0,1,2.66-.66c.57-.7.1-1.74-.45-2.45s-1.23-1.52-1-2.39c.32-1.33,2.16-1.37,3.5-1.12a9.6,9.6,0,0,0,.72-2.7c.24-.91,1-1.86,1.89-1.74s1.41,1.09,2.27,1.3,1.87-.65,2.65-1.31,2.15-1.08,2.69-.21c.32.52.13,1.25.47,1.77.58.89,2,.34,2.82-.3s2.22-1.2,2.82-.32a4,4,0,0,1,.33.91c.41,1.17,1.67,1.75,2.66,2.5s1.76,2.25.93,3.16c-.41.45-1.14.64-1.34,1.21-.26.72.48,1.36,1.06,1.86,1,.82,1.14,3.29-.14,4-.53.28-1.32.37-1.45,1s.42.94.77,1.35a2.54,2.54,0,0,1-.77,3.79c-.31.15-.69.27-.8.59a1.16,1.16,0,0,0,.07.71,3.53,3.53,0,0,1,.12,1.37.59.59,0,0,1-.16.43.66.66,0,0,1-.41.12c-1.85.08-2.74-.57-3.87,1a1.15,1.15,0,0,1-.38.41,1.1,1.1,0,0,1-.51.13c-1.27.1-2.1-.69-3.26-.84-1.61-.2-1.95.63-3.37,1.3C358,248.13,356.87,247.48,356.45,246Z" style="fill: rgb(235, 235, 235); transform-origin: 361.969px 234.075px;" id="el8b5r5l3uxle" class="animable"></path><path d="M370.62,242.84a7.06,7.06,0,0,1-.2-1.32c-.16-2.74-2.77-2.3-5-2.67-1.73-.29,2.87-4.68-.64-6.1a3.08,3.08,0,0,1-1.69-1.18,2,2,0,0,1,.77-2.43,4.66,4.66,0,0,1,2.65-.66c.58-.7.11-1.74-.44-2.45s-1.23-1.52-1-2.39c.31-1.32,2.16-1.37,3.49-1.11a9.44,9.44,0,0,0,.73-2.71c.23-.9,1-1.85,1.89-1.74s1.41,1.1,2.27,1.3,1.86-.65,2.65-1.31,2.15-1.08,2.69-.21c.32.53.13,1.26.46,1.77.59.89,2,.34,2.82-.29s2.22-1.21,2.83-.33a4.12,4.12,0,0,1,.33.91c.4,1.17,1.67,1.76,2.65,2.51s1.77,2.24.94,3.15c-.42.46-1.14.64-1.34,1.21-.26.72.48,1.37,1.06,1.86,1,.82,1.14,3.29-.14,4-.54.28-1.32.37-1.46,1s.42,1,.78,1.35a2.54,2.54,0,0,1-.78,3.79c-.3.15-.68.27-.8.59a1.17,1.17,0,0,0,.08.71,4,4,0,0,1,.12,1.38.63.63,0,0,1-.17.43.67.67,0,0,1-.4.11c-1.85.08-2.74-.57-3.87,1a1.49,1.49,0,0,1-.38.41,1.31,1.31,0,0,1-.51.12c-1.27.11-2.1-.69-3.26-.83-1.61-.21-2,.62-3.37,1.29C372.12,245,371,244.36,370.62,242.84Z" style="fill: rgb(235, 235, 235); transform-origin: 376.135px 230.925px;" id="elynlcvi0ltb" class="animable"></path><path d="M370.81,258a4.63,4.63,0,0,1-.16-1c-.13-2.16-2.19-1.82-3.94-2.11-1.36-.23,2.26-3.68-.5-4.8a2.42,2.42,0,0,1-1.33-.93,1.56,1.56,0,0,1,.6-1.91,3.68,3.68,0,0,1,2.09-.52c.45-.55.09-1.37-.35-1.93s-1-1.2-.8-1.88c.25-1,1.7-1.08,2.75-.88a7.53,7.53,0,0,0,.57-2.13c.19-.71.75-1.46,1.49-1.37s1.11.86,1.79,1,1.46-.51,2.08-1,1.7-.85,2.12-.16c.26.41.1,1,.37,1.39.46.7,1.54.27,2.22-.23s1.75-1,2.22-.26a2.58,2.58,0,0,1,.26.72c.32.92,1.32,1.38,2.09,2s1.39,1.77.74,2.49c-.33.35-.9.5-1.06,1s.38,1.07.84,1.46c.76.65.9,2.59-.11,3.12-.42.22-1,.29-1.15.76s.33.74.62,1.06a2,2,0,0,1-.62,3c-.24.12-.54.21-.63.47a1,1,0,0,0,.06.56,3,3,0,0,1,.1,1.08.51.51,0,0,1-.13.34.59.59,0,0,1-.32.09c-1.46.06-2.16-.45-3.05.81a1,1,0,0,1-.3.33,1.07,1.07,0,0,1-.4.1c-1,.08-1.66-.55-2.57-.66-1.27-.16-1.54.49-2.65,1C372,259.7,371.14,259.19,370.81,258Z" style="fill: rgb(235, 235, 235); transform-origin: 375.135px 248.659px;" id="el6h3zq0ck9nl" class="animable"></path><path d="M378.75,252.76a5.72,5.72,0,0,1-.2-1.32c-.17-2.74-2.78-2.3-5-2.68-1.74-.29,2.86-4.67-.64-6.09a3,3,0,0,1-1.69-1.18,2,2,0,0,1,.76-2.43,4.69,4.69,0,0,1,2.66-.66c.57-.7.1-1.74-.45-2.45s-1.23-1.52-1-2.39c.32-1.32,2.16-1.37,3.5-1.11a9.76,9.76,0,0,0,.72-2.71c.24-.9,1-1.85,1.89-1.74s1.41,1.1,2.27,1.3,1.87-.65,2.65-1.31,2.15-1.08,2.69-.21c.33.53.13,1.26.47,1.77.58.89,2,.34,2.82-.29s2.22-1.21,2.82-.33a3.31,3.31,0,0,1,.33.91c.41,1.17,1.67,1.76,2.66,2.51s1.76,2.24.93,3.15c-.41.45-1.14.64-1.34,1.21s.48,1.37,1.06,1.86c1,.82,1.14,3.29-.14,4-.53.28-1.32.37-1.45,1s.42.95.77,1.35a2.54,2.54,0,0,1-.77,3.79c-.31.15-.69.27-.8.59a1.24,1.24,0,0,0,.07.71,3.58,3.58,0,0,1,.12,1.38.62.62,0,0,1-.16.43.7.7,0,0,1-.41.11c-1.85.08-2.74-.57-3.86,1a1.35,1.35,0,0,1-.39.4,1.1,1.1,0,0,1-.51.13c-1.27.11-2.1-.69-3.26-.83-1.61-.21-2,.62-3.37,1.29C380.25,254.93,379.16,254.28,378.75,252.76Z" style="fill: rgb(235, 235, 235); transform-origin: 384.259px 240.847px;" id="elc2d7mxxr08t" class="animable"></path><path d="M356.45,229.29a6.35,6.35,0,0,1-.19-1.32c-.17-2.74-2.78-2.31-5-2.68-1.74-.29,2.86-4.68-.64-6.09a3,3,0,0,1-1.69-1.18,2,2,0,0,1,.76-2.43,4.69,4.69,0,0,1,2.66-.66c.57-.7.1-1.74-.45-2.45s-1.23-1.52-1-2.39c.32-1.33,2.16-1.37,3.5-1.12a9.6,9.6,0,0,0,.72-2.7c.24-.91,1-1.86,1.89-1.74s1.41,1.09,2.27,1.3,1.87-.65,2.65-1.31,2.15-1.08,2.69-.21c.32.52.13,1.25.47,1.77.58.89,2,.34,2.82-.3s2.22-1.2,2.82-.32a4,4,0,0,1,.33.91c.41,1.17,1.67,1.75,2.66,2.5s1.76,2.25.93,3.16c-.41.45-1.14.64-1.34,1.21s.48,1.36,1.06,1.86c1,.82,1.14,3.29-.14,4-.53.28-1.32.37-1.45,1s.42.94.77,1.35a2.54,2.54,0,0,1-.77,3.79c-.31.15-.69.27-.8.59a1.16,1.16,0,0,0,.07.71,3.53,3.53,0,0,1,.12,1.37.59.59,0,0,1-.16.43.66.66,0,0,1-.41.12c-1.85.08-2.74-.57-3.87,1a1.15,1.15,0,0,1-.38.41,1.1,1.1,0,0,1-.51.13c-1.27.1-2.1-.69-3.26-.84-1.61-.2-1.95.63-3.37,1.3C358,231.46,356.87,230.81,356.45,229.29Z" style="fill: rgb(235, 235, 235); transform-origin: 361.969px 217.378px;" id="eletif9hziaum" class="animable"></path><path d="M338.25,230.22a7.06,7.06,0,0,1-.2-1.32c-.16-2.74-2.77-2.3-5-2.68-1.73-.29,2.87-4.67-.64-6.09a3.08,3.08,0,0,1-1.69-1.18,2,2,0,0,1,.77-2.43,4.69,4.69,0,0,1,2.66-.66c.57-.7.1-1.74-.45-2.45s-1.23-1.52-1-2.39c.32-1.32,2.16-1.37,3.5-1.12a9.6,9.6,0,0,0,.72-2.7c.24-.9,1-1.86,1.89-1.74s1.41,1.09,2.27,1.3,1.86-.65,2.65-1.31,2.15-1.08,2.69-.21c.32.53.13,1.25.47,1.77.58.89,2,.34,2.81-.3s2.23-1.2,2.83-.32a4,4,0,0,1,.33.91c.41,1.17,1.67,1.76,2.66,2.51s1.76,2.24.93,3.15c-.41.45-1.14.64-1.34,1.21-.26.72.48,1.37,1.06,1.86,1,.82,1.14,3.29-.14,4-.53.28-1.32.37-1.45,1s.42.94.77,1.35a2.55,2.55,0,0,1-.77,3.79c-.31.15-.69.27-.8.59a1.16,1.16,0,0,0,.07.71,3.74,3.74,0,0,1,.12,1.37.59.59,0,0,1-.16.43.66.66,0,0,1-.41.12c-1.85.08-2.74-.57-3.87,1a1.15,1.15,0,0,1-.38.41,1.1,1.1,0,0,1-.51.13c-1.27.11-2.1-.69-3.26-.84-1.61-.2-1.95.63-3.37,1.3C339.76,232.39,338.67,231.74,338.25,230.22Z" style="fill: rgb(235, 235, 235); transform-origin: 343.765px 218.308px;" id="el1kcd02q22g1" class="animable"></path><path d="M327.2,237.67a6.32,6.32,0,0,1-.2-1.32c-.16-2.74-2.78-2.31-5-2.68-1.74-.29,2.86-4.68-.64-6.09a3.1,3.1,0,0,1-1.69-1.18,2,2,0,0,1,.76-2.43,4.78,4.78,0,0,1,2.66-.67c.57-.69.11-1.74-.44-2.44s-1.23-1.52-1-2.4c.32-1.32,2.17-1.36,3.5-1.11a9.6,9.6,0,0,0,.72-2.7c.24-.91,1-1.86,1.89-1.74s1.42,1.09,2.28,1.3,1.86-.65,2.64-1.32,2.16-1.07,2.7-.2c.32.52.13,1.25.46,1.77.58.89,2,.33,2.82-.3s2.22-1.2,2.82-.32a3.42,3.42,0,0,1,.34.91c.4,1.17,1.67,1.75,2.65,2.5s1.76,2.25.93,3.16c-.41.45-1.13.63-1.34,1.21s.48,1.36,1.06,1.86c1,.82,1.15,3.28-.13,4-.54.28-1.33.37-1.46,1s.42.94.78,1.35a2.55,2.55,0,0,1-.78,3.79c-.31.14-.68.27-.8.59a1.24,1.24,0,0,0,.07.71,3.74,3.74,0,0,1,.13,1.37.64.64,0,0,1-.17.43.63.63,0,0,1-.4.12c-1.85.08-2.74-.57-3.87,1a1.18,1.18,0,0,1-.39.41,1.24,1.24,0,0,1-.51.13c-1.27.1-2.1-.69-3.26-.84-1.61-.2-1.95.63-3.37,1.29C328.7,239.83,327.62,239.19,327.2,237.67Z" style="fill: rgb(235, 235, 235); transform-origin: 332.716px 225.751px;" id="elbjlmxly9dcn" class="animable"></path><path d="M330.55,247.08s4.62,6.54,6.22,8.61,9.56,15,10.65,23.53c.11.91.23,1.69.34,2.38-3.43,22.63-2.89,84-2.77,91.13h10.86c.1-8,1-101.07,1.37-103.3s4.9-11.35,11.91-15,13.08-15.92,13.08-15.92H380s-4.14,7.5-10,11.64a22.35,22.35,0,0,1-2.66,1.57,37.51,37.51,0,0,0-2.34-13.21l-1.21,1.12c1.63,6.67,1.42,10.95.92,13.4a24.32,24.32,0,0,0-6.1,4.08c-6.11-7.95-9.55-26.15-9.55-26.15l-1.57.86a93.27,93.27,0,0,0,2,11.16c1.15,4.71,4.52,13.57,6.09,17.6a41.69,41.69,0,0,0-4.62,8.68,3.14,3.14,0,0,0-.59-.71c-4-3.61-11.48-20.63-11.48-20.63-1.81-4,1-14.35,1-14.35h-2.09l-.94,9.09-5.26-5.74-1,.8,5.58,7.17,2.87,9.09-7.49-8.29Z" style="fill: rgb(230, 230, 230); transform-origin: 356.38px 301.845px;" id="elrcpmaw8if89" class="animable"></path><rect x="404.56" y="146.31" width="6.91" height="222.66" style="fill: rgb(230, 230, 230); transform-origin: 408.015px 257.64px;" id="elt4bnft1a5q" class="animable"></rect><polygon points="400.1 174.16 415.93 174.16 418.93 142.87 397.1 142.87 400.1 174.16" style="fill: rgb(235, 235, 235); transform-origin: 408.015px 158.515px;" id="elogj5mgy609" class="animable"></polygon><polygon points="397.82 140 406.36 130.76 408.01 128.96 409.67 130.76 418.21 140 423.03 140 420.15 145.82 409.67 145.82 406.36 145.82 395.87 145.82 393 140 397.82 140" style="fill: rgb(224, 224, 224); transform-origin: 408.015px 137.39px;" id="el79wnat1f1oc" class="animable"></polygon><g id="elc9wdw71gl2u"><rect x="398.74" y="172.17" width="18.55" height="3.56" style="fill: rgb(224, 224, 224); transform-origin: 408.015px 173.95px; transform: rotate(180deg);" class="animable"></rect></g><path d="M67.17,367.3c-.22-2.61.14-6,3.19-7,5.18-1.71,8.25-5.72,8.08-10.26s5.28-8.95,9.37-4.7,3.54-3.27,9-5.09,10.07,2.6,8.58,6.66,3.89,6.58,10.33,3.13,13.53,2.83,12.16,7.73-.24,5.45,3.83,3.82c3.29-1.32,8.68,1.45,9.28,5.72Z" style="fill: rgb(224, 224, 224); transform-origin: 104.054px 353.569px;" id="elfbez860tky5" class="animable"></path><path d="M434.71,367.3c.25-2.07.14-5.09-2.43-5.94-4-1.33-6.41-4.44-6.27-8s-4.1-6.95-7.27-3.65-2.75-2.54-7-4-7.81,2-6.66,5.17-3,5.11-8,2.44-10.5,2.19-9.45,6,.2,4.23-3,3c-2.68-1.08-7.14,1.35-7.23,4.94Z" style="fill: rgb(224, 224, 224); transform-origin: 406.1px 356.333px;" id="elc39m4mgyf2h" class="animable"></path><path d="M365.86,367.3H271.75c-1.32-4.41,2.1-9.71,5.83-10.45,4.58-.92,9.19-9,9.4-14.11s8.47-20.92,21.29-11.17,8.93,1.43,18.21-1.31,15.13,5.15,11.06,11.06c0,0,9.32-2.34,13.16,6.36s0,14.11,0,14.11S362.49,361.45,365.86,367.3Z" style="fill: rgb(224, 224, 224); transform-origin: 318.66px 347.879px;" id="elh47ayzgosf4" class="animable"></path><path d="M442.18,368.28V382H55.56V368.28a4.08,4.08,0,0,1,4-4.3H438.13A4.09,4.09,0,0,1,442.18,368.28Z" style="fill: rgb(224, 224, 224); transform-origin: 248.87px 372.99px;" id="el20tdnwkksjv" class="animable"></path><rect x="77.59" y="363.98" width="24.04" height="18.03" style="fill: rgb(245, 245, 245); transform-origin: 89.61px 372.995px;" id="elf7e1cv0tfxs" class="animable"></rect><rect x="123.67" y="363.98" width="23.04" height="18.03" style="fill: rgb(245, 245, 245); transform-origin: 135.19px 372.995px;" id="elo3ldqs0533q" class="animable"></rect><rect x="168.74" y="363.98" width="24.04" height="18.03" style="fill: rgb(245, 245, 245); transform-origin: 180.76px 372.995px;" id="elmuv0vofr1bg" class="animable"></rect><rect x="214.81" y="363.98" width="23.04" height="18.03" style="fill: rgb(245, 245, 245); transform-origin: 226.33px 372.995px;" id="el378agjte8e3" class="animable"></rect><rect x="259.88" y="363.98" width="23.04" height="18.03" style="fill: rgb(245, 245, 245); transform-origin: 271.4px 372.995px;" id="elov7l5pjuf4" class="animable"></rect><rect x="304.96" y="363.98" width="24.04" height="18.03" style="fill: rgb(245, 245, 245); transform-origin: 316.98px 372.995px;" id="elg2cnrbekvmi" class="animable"></rect><rect x="351.03" y="363.98" width="23.04" height="18.03" style="fill: rgb(245, 245, 245); transform-origin: 362.55px 372.995px;" id="elz9whwa67eps" class="animable"></rect><rect x="396.1" y="363.98" width="24.04" height="18.03" style="fill: rgb(245, 245, 245); transform-origin: 408.12px 372.995px;" id="elybhu98hcnua" class="animable"></rect></g><g id="freepik--Shadow--inject-1" class="animable" style="transform-origin: 250px 416.24px;"><ellipse id="freepik--path--inject-1" cx="250" cy="416.24" rx="193.89" ry="11.32" style="fill: rgb(245, 245, 245); transform-origin: 250px 416.24px;" class="animable"></ellipse></g><g id="freepik--petrol-machine-2--inject-1" class="animable" style="transform-origin: 308.214px 308.855px;"><rect x="335.48" y="236.61" width="19.74" height="179.14" style="fill: rgb(207, 216, 220); transform-origin: 345.35px 326.18px;" id="elfzyym2092en" class="animable"></rect><g id="elcwzvo7baxzt"><rect x="351.8" y="236.61" width="3.42" height="179.14" style="fill: rgb(255, 255, 255); opacity: 0.2; transform-origin: 353.51px 326.18px;" class="animable"></rect></g><rect x="276.65" y="264.68" width="70.61" height="151.07" style="fill: rgb(38, 50, 56); transform-origin: 311.955px 340.215px;" id="el36vd5or6djt" class="animable"></rect><g id="el1inj57mk2um"><rect x="276.65" y="264.68" width="70.61" height="151.07" style="fill: rgb(255, 255, 255); opacity: 0.2; transform-origin: 311.955px 340.215px;" class="animable"></rect></g><rect x="268.25" y="236.61" width="19.74" height="179.14" style="fill: rgb(207, 216, 220); transform-origin: 278.12px 326.18px;" id="el8qwxcgzuavl" class="animable"></rect><g id="elk8gajnm7apd"><rect x="284.57" y="236.61" width="3.42" height="179.14" style="fill: rgb(255, 255, 255); opacity: 0.2; transform-origin: 286.28px 326.18px;" class="animable"></rect></g><rect x="265.19" y="201.96" width="93.48" height="38.13" style="fill: rgb(207, 216, 220); transform-origin: 311.93px 221.025px;" id="elum7vtqznhff" class="animable"></rect><g id="elt3dfal3qhnk"><rect x="265.19" y="201.96" width="93.48" height="38.13" style="fill: rgb(255, 255, 255); opacity: 0.5; transform-origin: 311.93px 221.025px;" class="animable"></rect></g><g id="elp8rtphj7s8l"><rect x="286.28" y="201.96" width="72.4" height="38.13" style="fill: rgb(255, 255, 255); opacity: 0.6; transform-origin: 322.48px 221.025px;" class="animable"></rect></g><rect x="294.83" y="272.78" width="48.25" height="142.97" style="fill: rgb(207, 216, 220); transform-origin: 318.955px 344.265px;" id="el46y9q59ro02" class="animable"></rect><g id="elldcaevg78xr"><rect x="294.83" y="272.78" width="48.25" height="142.97" style="fill: rgb(255, 255, 255); opacity: 0.6; transform-origin: 318.955px 344.265px;" class="animable"></rect></g><g id="el0h2m29hky5vb"><rect x="302.68" y="280.38" width="34.96" height="24.38" style="opacity: 0.2; transform-origin: 320.16px 292.57px;" class="animable"></rect></g><rect x="270.57" y="290.03" width="9.25" height="45.39" rx="1.68" style="fill: rgb(38, 50, 56); transform-origin: 275.195px 312.725px;" id="elql3wny6mb1" class="animable"></rect><g id="el4lqa6crm5nw"><rect x="270.57" y="290.03" width="9.25" height="45.39" rx="1.68" style="fill: rgb(255, 255, 255); opacity: 0.2; transform-origin: 275.195px 312.725px;" class="animable"></rect></g><path d="M273.14,329.84h1.69a1.1,1.1,0,0,0,1.1-1.1V321a1.09,1.09,0,0,1,1.09-1.1h0a1.09,1.09,0,0,0,1.1-1.09v-26a1.09,1.09,0,0,0-1.1-1.09h-3.88a1.09,1.09,0,0,0-1.1,1.09v35.94A1.1,1.1,0,0,0,273.14,329.84Z" style="fill: rgb(38, 50, 56); transform-origin: 275.08px 310.78px;" id="elaizrcqac0gu" class="animable"></path><rect x="272.7" y="338.96" width="5.42" height="7.4" rx="1.61" style="fill: rgb(38, 50, 56); transform-origin: 275.41px 342.66px;" id="elfqhdnc49sik" class="animable"></rect><g id="elpm72bcn5p9j"><rect x="272.7" y="338.96" width="5.42" height="7.4" rx="1.61" style="fill: rgb(255, 255, 255); opacity: 0.2; transform-origin: 275.41px 342.66px;" class="animable"></rect></g><path d="M266.73,408.8a7.05,7.05,0,0,1-7-7.05V330.6a1.44,1.44,0,0,1,2.88,0v71.15a4.16,4.16,0,1,0,8.32,0V345.12a4.2,4.2,0,0,1,4.19-4.19,1.45,1.45,0,0,1,0,2.89,1.31,1.31,0,0,0-1.31,1.3v56.63A7,7,0,0,1,266.73,408.8Z" style="fill: rgb(38, 50, 56); transform-origin: 268.09px 368.98px;" id="elbd2b8x7dpbb" class="animable"></path><path d="M274.58,294l-7.17,7.88a9.08,9.08,0,0,0-1.76,2.88l-2.56,6.86,2.51.32,2.19-5.84a9,9,0,0,1,1.7-2.8L276,296a1.24,1.24,0,0,0,.5-1.35v0A1.26,1.26,0,0,0,274.58,294Z" style="fill: rgb(38, 50, 56); transform-origin: 269.817px 302.857px;" id="el528uqxhtvj9" class="animable"></path><g id="eleiiq74yokwb"><path d="M274.58,294l-7.17,7.88a9.08,9.08,0,0,0-1.76,2.88l-2.56,6.86,2.51.32,2.19-5.84a9,9,0,0,1,1.7-2.8L276,296a1.24,1.24,0,0,0,.5-1.35v0A1.26,1.26,0,0,0,274.58,294Z" style="fill: rgb(255, 255, 255); opacity: 0.5; transform-origin: 269.817px 302.857px;" class="animable"></path></g><path d="M264.54,307.88l2.43.37a1.09,1.09,0,0,1,.83.62l2.95,6.51a2.9,2.9,0,0,1,.11,2.07l-2.92,9a1.1,1.1,0,0,1-1.2.74l-7.44-1.12a1.13,1.13,0,0,1-.81-.59l-.52-1a2,2,0,0,1-.08-1.66l5.47-14.19A1.08,1.08,0,0,1,264.54,307.88Z" style="fill: rgb(207, 216, 220); transform-origin: 264.374px 317.536px;" id="elq50n3ywihc" class="animable"></path><g id="elbluwwloq9j"><path d="M264.54,307.88l2.43.37a1.09,1.09,0,0,1,.83.62l2.95,6.51a2.9,2.9,0,0,1,.11,2.07l-2.92,9a1.1,1.1,0,0,1-1.2.74l-7.44-1.12a1.13,1.13,0,0,1-.81-.59l-.52-1a2,2,0,0,1-.08-1.66l5.47-14.19A1.08,1.08,0,0,1,264.54,307.88Z" style="opacity: 0.2; transform-origin: 264.374px 317.536px;" class="animable"></path></g><path d="M259.86,324.59l2.4.36a.62.62,0,0,1,.19.07l3.17,1.73a.58.58,0,0,1,.16.88L263,330.78a.76.76,0,0,1-.71.27l-2.15-.33a.78.78,0,0,1-.67-.73l-.27-4.8A.57.57,0,0,1,259.86,324.59Z" style="fill: rgb(38, 50, 56); transform-origin: 262.558px 327.821px;" id="el7r2ub5eay6b" class="animable"></path><g id="el0f3dxznof1xf"><path d="M259.86,324.59l2.4.36a.62.62,0,0,1,.19.07l3.17,1.73a.58.58,0,0,1,.16.88L263,330.78a.76.76,0,0,1-.71.27l-2.15-.33a.78.78,0,0,1-.67-.73l-.27-4.8A.57.57,0,0,1,259.86,324.59Z" style="fill: rgb(255, 255, 255); opacity: 0.5; transform-origin: 262.558px 327.821px;" class="animable"></path></g><rect x="302.68" y="307.39" width="34.96" height="20.36" style="fill: rgb(38, 50, 56); transform-origin: 320.16px 317.57px;" id="eltaud2nrpj3" class="animable"></rect><g id="elqa19q7tkek"><rect x="302.68" y="307.39" width="34.96" height="20.36" style="fill: rgb(255, 255, 255); opacity: 0.2; transform-origin: 320.16px 317.57px;" class="animable"></rect></g><g id="elwbouwta5w6b"><rect x="305.25" y="309.51" width="1.76" height="1.76" style="fill: rgb(255, 255, 255); opacity: 0.2; transform-origin: 306.13px 310.39px;" class="animable"></rect></g><g id="elh75uocxg3h"><rect x="308.01" y="309.51" width="1.76" height="1.76" style="fill: rgb(255, 255, 255); opacity: 0.2; transform-origin: 308.89px 310.39px;" class="animable"></rect></g><g id="el5wjwfqca9hr"><rect x="310.78" y="309.51" width="1.76" height="1.76" style="fill: rgb(255, 255, 255); opacity: 0.2; transform-origin: 311.66px 310.39px;" class="animable"></rect></g><g id="elsgjjiui0se"><rect x="305.25" y="312.17" width="1.76" height="1.76" style="fill: rgb(255, 255, 255); opacity: 0.2; transform-origin: 306.13px 313.05px;" class="animable"></rect></g><g id="el8lff5l4rvp8"><rect x="308.01" y="312.17" width="1.76" height="1.76" style="fill: rgb(255, 255, 255); opacity: 0.2; transform-origin: 308.89px 313.05px;" class="animable"></rect></g><g id="elxa82lxkr4vh"><rect x="310.78" y="312.17" width="1.76" height="1.76" style="fill: rgb(255, 255, 255); opacity: 0.2; transform-origin: 311.66px 313.05px;" class="animable"></rect></g><g id="elfk1ylhg0b1"><rect x="305.25" y="314.83" width="1.76" height="1.76" style="fill: rgb(255, 255, 255); opacity: 0.2; transform-origin: 306.13px 315.71px;" class="animable"></rect></g><g id="el9gjgbtst4rn"><rect x="308.01" y="314.83" width="1.76" height="1.76" style="fill: rgb(255, 255, 255); opacity: 0.2; transform-origin: 308.89px 315.71px;" class="animable"></rect></g><g id="el0plgg2janzk9"><rect x="310.78" y="314.83" width="1.76" height="1.76" style="fill: rgb(255, 255, 255); opacity: 0.2; transform-origin: 311.66px 315.71px;" class="animable"></rect></g><g id="elsdjw57bfuj"><rect x="305.25" y="317.49" width="1.76" height="1.76" style="fill: rgb(255, 255, 255); opacity: 0.2; transform-origin: 306.13px 318.37px;" class="animable"></rect></g><g id="el5xsup7dd5zv"><rect x="308.01" y="317.49" width="1.76" height="1.76" style="fill: rgb(255, 255, 255); opacity: 0.2; transform-origin: 308.89px 318.37px;" class="animable"></rect></g><g id="el2b7qfeg0w45"><rect x="310.78" y="317.49" width="1.76" height="1.76" style="fill: rgb(255, 255, 255); opacity: 0.2; transform-origin: 311.66px 318.37px;" class="animable"></rect></g><g id="elvbve7yr4eo"><rect x="313.47" y="309.51" width="2.72" height="1.76" style="fill: rgb(255, 255, 255); opacity: 0.2; transform-origin: 314.83px 310.39px;" class="animable"></rect></g><g id="elzif0qkdkmqe"><rect x="313.47" y="312.17" width="2.72" height="1.76" style="fill: rgb(255, 255, 255); opacity: 0.2; transform-origin: 314.83px 313.05px;" class="animable"></rect></g><g id="el1jibkjqz5z3"><rect x="313.47" y="314.83" width="2.72" height="1.76" style="fill: rgb(255, 255, 255); opacity: 0.2; transform-origin: 314.83px 315.71px;" class="animable"></rect></g><g id="elwe40cmk3tao"><polygon points="309.21 320.15 308.01 320.15 305.25 320.15 305.25 321.9 308.01 321.9 309.21 321.9 309.77 321.9 309.77 320.15 309.21 320.15" style="fill: rgb(255, 255, 255); opacity: 0.2; transform-origin: 307.51px 321.025px;" class="animable"></polygon></g><g id="elwd5mr0mgw4"><rect x="310.78" y="320.15" width="1.76" height="1.76" style="fill: rgb(255, 255, 255); opacity: 0.2; transform-origin: 311.66px 321.03px;" class="animable"></rect></g><g id="elcd3o346e1ll"><polygon points="313.47 317.49 313.47 320.15 313.47 320.62 313.47 321.9 316.19 321.9 316.19 320.62 316.19 320.15 316.19 317.49 313.47 317.49" style="fill: rgb(255, 255, 255); opacity: 0.2; transform-origin: 314.83px 319.695px;" class="animable"></polygon></g><g id="el1rukvmgtasv"><rect x="324.59" y="309.51" width="1.76" height="1.76" style="fill: rgb(255, 255, 255); opacity: 0.2; transform-origin: 325.47px 310.39px;" class="animable"></rect></g><g id="elo9z5pk92dje"><rect x="327.35" y="309.51" width="1.76" height="1.76" style="fill: rgb(255, 255, 255); opacity: 0.2; transform-origin: 328.23px 310.39px;" class="animable"></rect></g><g id="el22yr45x43ff"><rect x="330.11" y="309.51" width="1.76" height="1.76" style="fill: rgb(255, 255, 255); opacity: 0.2; transform-origin: 330.99px 310.39px;" class="animable"></rect></g><g id="elt2j488zx3z"><rect x="324.59" y="312.17" width="1.76" height="1.76" style="fill: rgb(255, 255, 255); opacity: 0.2; transform-origin: 325.47px 313.05px;" class="animable"></rect></g><g id="elrhemg1dskc"><rect x="327.35" y="312.17" width="1.76" height="1.76" style="fill: rgb(255, 255, 255); opacity: 0.2; transform-origin: 328.23px 313.05px;" class="animable"></rect></g><g id="el4i6qwqzvje6"><rect x="330.11" y="312.17" width="1.76" height="1.76" style="fill: rgb(255, 255, 255); opacity: 0.2; transform-origin: 330.99px 313.05px;" class="animable"></rect></g><g id="elhm82zjysnrk"><rect x="324.59" y="314.83" width="1.76" height="1.76" style="fill: rgb(255, 255, 255); opacity: 0.2; transform-origin: 325.47px 315.71px;" class="animable"></rect></g><g id="elgi1lyoj0l68"><rect x="327.35" y="314.83" width="1.76" height="1.76" style="fill: rgb(255, 255, 255); opacity: 0.2; transform-origin: 328.23px 315.71px;" class="animable"></rect></g><g id="eloronqtqowio"><rect x="330.11" y="314.83" width="1.76" height="1.76" style="fill: rgb(255, 255, 255); opacity: 0.2; transform-origin: 330.99px 315.71px;" class="animable"></rect></g><g id="el7cfews93o5e"><rect x="324.59" y="317.49" width="1.76" height="1.76" style="fill: rgb(255, 255, 255); opacity: 0.2; transform-origin: 325.47px 318.37px;" class="animable"></rect></g><g id="elpg06sen8fp"><rect x="327.35" y="317.49" width="1.76" height="1.76" style="fill: rgb(255, 255, 255); opacity: 0.2; transform-origin: 328.23px 318.37px;" class="animable"></rect></g><g id="el53wor2qtf93"><rect x="330.11" y="317.49" width="1.76" height="1.76" style="fill: rgb(255, 255, 255); opacity: 0.2; transform-origin: 330.99px 318.37px;" class="animable"></rect></g><g id="ele47n252ozm"><rect x="332.8" y="309.51" width="2.72" height="1.76" style="fill: rgb(255, 255, 255); opacity: 0.2; transform-origin: 334.16px 310.39px;" class="animable"></rect></g><g id="elq67lnhb5nua"><rect x="332.8" y="312.17" width="2.72" height="1.76" style="fill: rgb(255, 255, 255); opacity: 0.2; transform-origin: 334.16px 313.05px;" class="animable"></rect></g><g id="el0u2zy0w4wma"><rect x="332.8" y="314.83" width="2.72" height="1.76" style="fill: rgb(255, 255, 255); opacity: 0.2; transform-origin: 334.16px 315.71px;" class="animable"></rect></g><g id="elvx4dz5y2v6"><polygon points="328.54 320.15 327.35 320.15 324.59 320.15 324.59 321.9 327.35 321.9 328.54 321.9 329.11 321.9 329.11 320.15 328.54 320.15" style="fill: rgb(255, 255, 255); opacity: 0.2; transform-origin: 326.85px 321.025px;" class="animable"></polygon></g><g id="elvpx3zc92euf"><rect x="330.11" y="320.15" width="1.76" height="1.76" style="fill: rgb(255, 255, 255); opacity: 0.2; transform-origin: 330.99px 321.03px;" class="animable"></rect></g><g id="elnbs2252dlf"><polygon points="332.8 317.49 332.8 320.15 332.8 320.62 332.8 321.9 335.52 321.9 335.52 320.62 335.52 320.15 335.52 317.49 332.8 317.49" style="fill: rgb(255, 255, 255); opacity: 0.2; transform-origin: 334.16px 319.695px;" class="animable"></polygon></g><g id="eloeotl66n7sb"><rect x="318.07" y="309.51" width="4.56" height="3.99" style="opacity: 0.2; transform-origin: 320.35px 311.505px;" class="animable"></rect></g><g id="el7o7xt3yk62k"><rect x="318.07" y="314.83" width="4.56" height="3.99" style="opacity: 0.2; transform-origin: 320.35px 316.825px;" class="animable"></rect></g><g id="elfcpd3gs11oo"><rect x="305.23" y="322.93" width="10.95" height="3.24" style="opacity: 0.2; transform-origin: 310.705px 324.55px;" class="animable"></rect></g><g id="el5key8zqcd2"><rect x="324.59" y="322.93" width="10.95" height="3.24" style="opacity: 0.2; transform-origin: 330.065px 324.55px;" class="animable"></rect></g><g id="elkqfhg4yaiy"><rect x="302.68" y="328.49" width="34.96" height="87.26" style="fill: rgb(255, 255, 255); opacity: 0.2; transform-origin: 320.16px 372.12px;" class="animable"></rect></g><g id="elgr33atpttq"><rect x="302.68" y="282.34" width="31.48" height="20.9" style="fill: rgb(255, 255, 255); opacity: 0.7; transform-origin: 318.42px 292.79px;" class="animable"></rect></g><g id="elxo70pi9r5gl"><polygon points="337.64 280.38 334.16 282.34 334.16 303.24 337.64 304.76 337.64 280.38" style="fill: rgb(255, 255, 255); opacity: 0.2; transform-origin: 335.9px 292.57px;" class="animable"></polygon></g><g id="elyqcsyt1xcm"><rect x="294.83" y="272.78" width="1.77" height="142.97" style="opacity: 0.2; transform-origin: 295.715px 344.265px;" class="animable"></rect></g><g id="el4yex1euw0br"><polygon points="303.57 206.08 303.57 219.25 290.4 219.25 303.57 206.08" style="fill: rgb(255, 255, 255); opacity: 0.6; transform-origin: 296.985px 212.665px;" class="animable"></polygon></g><polygon points="290.4 206.08 290.4 219.25 303.57 206.08 290.4 206.08" style="fill: rgb(207, 216, 220); transform-origin: 296.985px 212.665px;" id="ellq9hpvqsffh" class="animable"></polygon><g id="el26u06bd0d9t"><polygon points="290.4 219.25 303.57 219.25 290.4 206.08 290.4 219.25" style="opacity: 0.2; transform-origin: 296.985px 212.665px;" class="animable"></polygon></g><polygon points="358.68 201.96 286.28 240.09 358.68 240.09 358.68 201.96" style="fill: rgb(207, 216, 220); transform-origin: 322.48px 221.025px;" id="elqllzljg8n9s" class="animable"></polygon><g id="elk9eptory41b"><polygon points="358.68 201.96 286.28 240.09 358.68 240.09 358.68 201.96" style="opacity: 0.2; transform-origin: 322.48px 221.025px;" class="animable"></polygon></g><g id="elrnlcgvsqrt"><polygon points="358.68 240.09 303.95 230.79 358.68 201.96 358.68 240.09" style="opacity: 0.2; transform-origin: 331.315px 221.025px;" class="animable"></polygon></g><g id="elm64fe9ev17s"><rect x="345.35" y="222.16" width="8.87" height="4.18" rx="1.08" style="fill: rgb(255, 255, 255); opacity: 0.5; transform-origin: 349.785px 224.25px;" class="animable"></rect></g><g id="elxz4aedz8rbg"><path d="M353.15,230.4h-16a1.08,1.08,0,0,1-1.07-1.08h0a1.08,1.08,0,0,1,1.07-1.08h16a1.08,1.08,0,0,1,1.08,1.08h0A1.08,1.08,0,0,1,353.15,230.4Z" style="fill: rgb(255, 255, 255); opacity: 0.5; transform-origin: 345.155px 229.32px;" class="animable"></path></g><g id="eluab93521nua"><polygon points="351.81 240.09 335.54 254.08 335.54 240.09 351.81 240.09" style="opacity: 0.2; transform-origin: 343.675px 247.085px;" class="animable"></polygon></g><g id="elldi25gansc"><polygon points="347.26 264.68 351.81 415.75 347.26 415.75 347.26 264.68" style="opacity: 0.2; transform-origin: 349.535px 340.215px;" class="animable"></polygon></g></g><g id="freepik--Canopy--inject-1" class="animable" style="transform-origin: 239.57px 272.515px;"><rect x="224.39" y="138.04" width="30.36" height="277.71" style="fill: rgb(38, 50, 56); transform-origin: 239.57px 276.895px;" id="elbomngu8a1dq" class="animable"></rect><g id="ela1ziu3no8n"><rect x="236.93" y="138.04" width="17.82" height="277.71" style="fill: rgb(255, 255, 255); opacity: 0.2; transform-origin: 245.84px 276.895px;" class="animable"></rect></g><rect x="80.08" y="131.39" width="318.98" height="24.78" style="fill: rgb(207, 216, 220); transform-origin: 239.57px 143.78px;" id="ele6zd06o4kf" class="animable"></rect><g id="el1txvf9gk7os"><rect x="164.27" y="131.39" width="234.8" height="24.78" style="fill: rgb(255, 255, 255); opacity: 0.2; transform-origin: 281.67px 143.78px;" class="animable"></rect></g><rect x="76.19" y="156.18" width="326.76" height="4.16" style="fill: rgb(207, 216, 220); transform-origin: 239.57px 158.26px;" id="el45dwupzh8qf" class="animable"></rect><g id="ellvcv7lu8jbd"><rect x="76.19" y="156.18" width="326.76" height="4.16" style="fill: rgb(255, 255, 255); opacity: 0.5; transform-origin: 239.57px 158.26px;" class="animable"></rect></g><g id="el5q1ai6h8svq"><rect x="161.81" y="156.18" width="241.14" height="4.16" style="fill: rgb(255, 255, 255); opacity: 0.6; transform-origin: 282.38px 158.26px;" class="animable"></rect></g><rect x="76.19" y="129.28" width="326.76" height="4.16" style="fill: rgb(207, 216, 220); transform-origin: 239.57px 131.36px;" id="elshu6siwlba" class="animable"></rect><g id="elfh59wmnp6xr"><rect x="76.19" y="129.28" width="326.76" height="4.16" style="fill: rgb(255, 255, 255); opacity: 0.5; transform-origin: 239.57px 131.36px;" class="animable"></rect></g><g id="elfv9vtb84dt"><rect x="161.81" y="129.28" width="241.14" height="4.16" style="fill: rgb(255, 255, 255); opacity: 0.6; transform-origin: 282.38px 131.36px;" class="animable"></rect></g><path d="M236.38,140.67v3h4.77v1.55h-4.77V149h-1.84v-9.88h7.21v1.54Z" style="fill: rgb(255, 255, 255); transform-origin: 238.145px 144.06px;" id="elihqpuuvdji8" class="animable"></path><path d="M243.45,144.71v-5.58h1.83v5.51c0,2,.92,2.9,2.51,2.9s2.5-.87,2.5-2.9v-5.51h1.81v5.58c0,2.88-1.63,4.44-4.32,4.44S243.45,147.59,243.45,144.71Z" style="fill: rgb(255, 255, 255); transform-origin: 247.775px 144.14px;" id="el7k3up9qc05w" class="animable"></path><path d="M262.07,147.47V149h-7.4v-9.88h7.21v1.54H256.5v2.57h4.77v1.51H256.5v2.72Z" style="fill: rgb(255, 255, 255); transform-origin: 258.37px 144.06px;" id="elw12eqk8opqs" class="animable"></path><path d="M264.12,139.13H266v8.33h5.17V149h-7Z" style="fill: rgb(255, 255, 255); transform-origin: 267.645px 144.065px;" id="elmljz37dp11h" class="animable"></path><path d="M275.63,148l.64-1.43a5.45,5.45,0,0,0,3.26,1.09c1.54,0,2.19-.55,2.19-1.29,0-2.13-5.87-.73-5.87-4.4,0-1.59,1.27-2.95,4-2.95a6.18,6.18,0,0,1,3.28.88l-.57,1.42a5.53,5.53,0,0,0-2.73-.77c-1.52,0-2.14.59-2.14,1.34,0,2.1,5.85.73,5.85,4.36,0,1.58-1.28,2.93-4,2.93A6.42,6.42,0,0,1,275.63,148Z" style="fill: rgb(255, 255, 255); transform-origin: 279.585px 144.101px;" id="elu2kew82z8hl" class="animable"></path><path d="M287.21,140.69h-3.28v-1.56h8.38v1.56H289V149h-1.83Z" style="fill: rgb(255, 255, 255); transform-origin: 288.12px 144.065px;" id="el2jecvhitg2b" class="animable"></path><path d="M299.61,146.73h-4.94l-1,2.28h-1.89l4.44-9.88h1.81l4.46,9.88H300.6Zm-.61-1.44L297.14,141l-1.85,4.32Z" style="fill: rgb(255, 255, 255); transform-origin: 297.135px 144.07px;" id="el02kmillfha4p" class="animable"></path><path d="M305.28,140.69H302v-1.56h8.38v1.56h-3.27V149h-1.84Z" style="fill: rgb(255, 255, 255); transform-origin: 306.19px 144.065px;" id="eldzkmdixxc6w" class="animable"></path><path d="M311.77,139.13h1.84V149h-1.84Z" style="fill: rgb(255, 255, 255); transform-origin: 312.69px 144.065px;" id="elkzwmblhkaz9" class="animable"></path><path d="M315.57,144.07a5.33,5.33,0,1,1,5.32,5.08A5.06,5.06,0,0,1,315.57,144.07Zm8.79,0a3.47,3.47,0,1,0-3.47,3.47A3.36,3.36,0,0,0,324.36,144.07Z" style="fill: rgb(255, 255, 255); transform-origin: 320.894px 143.823px;" id="elpimsg09u2g" class="animable"></path><path d="M336.94,139.13V149h-1.51L330,142.32V149h-1.82v-9.88h1.51l5.44,6.69v-6.69Z" style="fill: rgb(255, 255, 255); transform-origin: 332.56px 144.06px;" id="elekuunjwkygg" class="animable"></path><g id="elvlnwe7vcmx"><rect x="80.08" y="139.13" width="148.2" height="1.84" style="fill: rgb(255, 255, 255); opacity: 0.5; transform-origin: 154.18px 140.05px;" class="animable"></rect></g><g id="el1ubkg9b9kct"><rect x="80.08" y="142.87" width="148.2" height="1.84" style="fill: rgb(255, 255, 255); opacity: 0.5; transform-origin: 154.18px 143.79px;" class="animable"></rect></g><g id="eld2n3osv2rl8"><rect x="80.08" y="146.6" width="148.2" height="1.84" style="fill: rgb(255, 255, 255); opacity: 0.5; transform-origin: 154.18px 147.52px;" class="animable"></rect></g><g id="elc9fcnfknn7"><rect x="342.01" y="139.13" width="57.05" height="1.83" style="fill: rgb(255, 255, 255); opacity: 0.5; transform-origin: 370.535px 140.045px;" class="animable"></rect></g><g id="el9o9g4kf7zqa"><rect x="342.01" y="142.87" width="57.05" height="1.83" style="fill: rgb(255, 255, 255); opacity: 0.5; transform-origin: 370.535px 143.785px;" class="animable"></rect></g><g id="elcbte6xkcjtk"><rect x="342.01" y="146.6" width="57.05" height="1.83" style="fill: rgb(255, 255, 255); opacity: 0.5; transform-origin: 370.535px 147.515px;" class="animable"></rect></g></g><g id="freepik--petrol-machine-1--inject-1" class="animable" style="transform-origin: 159.364px 308.855px;"><rect x="186.61" y="236.61" width="19.74" height="179.14" style="fill: rgb(207, 216, 220); transform-origin: 196.48px 326.18px;" id="elp8k0zjzdv5" class="animable"></rect><g id="elf51qtp2xlb"><rect x="202.93" y="236.61" width="3.42" height="179.14" style="fill: rgb(255, 255, 255); opacity: 0.2; transform-origin: 204.64px 326.18px;" class="animable"></rect></g><rect x="127.78" y="264.68" width="70.61" height="151.07" style="fill: rgb(38, 50, 56); transform-origin: 163.085px 340.215px;" id="elt6sas5kvty" class="animable"></rect><g id="elaapmv5r6uuq"><rect x="127.78" y="264.68" width="70.61" height="151.07" style="fill: rgb(255, 255, 255); opacity: 0.2; transform-origin: 163.085px 340.215px;" class="animable"></rect></g><rect x="119.37" y="236.61" width="19.74" height="179.14" style="fill: rgb(207, 216, 220); transform-origin: 129.24px 326.18px;" id="elvc61565tpel" class="animable"></rect><g id="el7frvc9a2435"><rect x="135.7" y="236.61" width="3.42" height="179.14" style="fill: rgb(255, 255, 255); opacity: 0.2; transform-origin: 137.41px 326.18px;" class="animable"></rect></g><rect x="116.32" y="201.96" width="93.48" height="38.13" style="fill: rgb(207, 216, 220); transform-origin: 163.06px 221.025px;" id="elpvxb334dch" class="animable"></rect><g id="el2ks4qtrz6be"><rect x="116.32" y="201.96" width="93.48" height="38.13" style="fill: rgb(255, 255, 255); opacity: 0.5; transform-origin: 163.06px 221.025px;" class="animable"></rect></g><g id="elgb7hpip3cp7"><rect x="137.41" y="201.96" width="72.39" height="38.13" style="fill: rgb(255, 255, 255); opacity: 0.6; transform-origin: 173.605px 221.025px;" class="animable"></rect></g><rect x="145.95" y="272.78" width="48.25" height="142.97" style="fill: rgb(207, 216, 220); transform-origin: 170.075px 344.265px;" id="el4w5rcmiklms" class="animable"></rect><g id="elfvsamec368k"><rect x="145.95" y="272.78" width="48.25" height="142.97" style="fill: rgb(255, 255, 255); opacity: 0.6; transform-origin: 170.075px 344.265px;" class="animable"></rect></g><g id="elnx45b6azlyj"><rect x="153.81" y="280.38" width="34.96" height="24.38" style="opacity: 0.2; transform-origin: 171.29px 292.57px;" class="animable"></rect></g><rect x="121.7" y="290.03" width="9.25" height="45.39" rx="1.68" style="fill: rgb(38, 50, 56); transform-origin: 126.325px 312.725px;" id="elcesklcmm47h" class="animable"></rect><g id="elpoy9okaolj8"><rect x="121.7" y="290.03" width="9.25" height="45.39" rx="1.68" style="fill: rgb(255, 255, 255); opacity: 0.2; transform-origin: 126.325px 312.725px;" class="animable"></rect></g><path d="M124.26,329.84H126a1.09,1.09,0,0,0,1.09-1.1V321a1.1,1.1,0,0,1,1.1-1.1h0a1.09,1.09,0,0,0,1.09-1.09v-26a1.09,1.09,0,0,0-1.09-1.09h-3.89a1.09,1.09,0,0,0-1.09,1.09v35.94A1.09,1.09,0,0,0,124.26,329.84Z" style="fill: rgb(38, 50, 56); transform-origin: 126.245px 310.78px;" id="elnm2su8mxsr" class="animable"></path><rect x="123.82" y="338.96" width="5.42" height="7.4" rx="1.61" style="fill: rgb(38, 50, 56); transform-origin: 126.53px 342.66px;" id="el348d9bwqwa6" class="animable"></rect><g id="el2envej3mclz"><rect x="123.82" y="338.96" width="5.42" height="7.4" rx="1.61" style="fill: rgb(255, 255, 255); opacity: 0.2; transform-origin: 126.53px 342.66px;" class="animable"></rect></g><path d="M117.86,408.8a7.05,7.05,0,0,1-7-7.05V330.6a1.45,1.45,0,0,1,2.89,0v71.15a4.16,4.16,0,1,0,8.32,0V345.12a4.2,4.2,0,0,1,4.19-4.19,1.45,1.45,0,0,1,0,2.89,1.31,1.31,0,0,0-1.31,1.3v56.63A7.05,7.05,0,0,1,117.86,408.8Z" style="fill: rgb(38, 50, 56); transform-origin: 119.225px 369.035px;" id="elhhdf9o5hs6m" class="animable"></path><path d="M125.71,294l-7.17,7.88a8.73,8.73,0,0,0-1.76,2.88l-2.57,6.86,2.52.32,2.19-5.84a9,9,0,0,1,1.69-2.8l6.55-7.34a1.24,1.24,0,0,0,.5-1.35v0A1.26,1.26,0,0,0,125.71,294Z" style="fill: rgb(38, 50, 56); transform-origin: 120.957px 302.844px;" id="elmpm5ahl3abl" class="animable"></path><g id="eluur8898wqfk"><path d="M125.71,294l-7.17,7.88a8.73,8.73,0,0,0-1.76,2.88l-2.57,6.86,2.52.32,2.19-5.84a9,9,0,0,1,1.69-2.8l6.55-7.34a1.24,1.24,0,0,0,.5-1.35v0A1.26,1.26,0,0,0,125.71,294Z" style="fill: rgb(255, 255, 255); opacity: 0.5; transform-origin: 120.957px 302.844px;" class="animable"></path></g><path d="M115.66,307.88l2.43.37a1.07,1.07,0,0,1,.83.62l3,6.51a2.85,2.85,0,0,1,.12,2.07l-2.93,9a1.09,1.09,0,0,1-1.2.74l-7.43-1.12a1.13,1.13,0,0,1-.81-.59l-.53-1a2.13,2.13,0,0,1-.08-1.66l5.47-14.19A1.09,1.09,0,0,1,115.66,307.88Z" style="fill: rgb(207, 216, 220); transform-origin: 115.554px 317.539px;" id="elppre652k8gn" class="animable"></path><g id="elfu39jgjctjp"><path d="M115.66,307.88l2.43.37a1.07,1.07,0,0,1,.83.62l3,6.51a2.85,2.85,0,0,1,.12,2.07l-2.93,9a1.09,1.09,0,0,1-1.2.74l-7.43-1.12a1.13,1.13,0,0,1-.81-.59l-.53-1a2.13,2.13,0,0,1-.08-1.66l5.47-14.19A1.09,1.09,0,0,1,115.66,307.88Z" style="opacity: 0.2; transform-origin: 115.554px 317.539px;" class="animable"></path></g><path d="M111,324.59l2.39.36a.62.62,0,0,1,.19.07l3.18,1.73a.57.57,0,0,1,.15.88l-2.76,3.15a.78.78,0,0,1-.71.27l-2.15-.33a.78.78,0,0,1-.67-.73l-.28-4.8A.58.58,0,0,1,111,324.59Z" style="fill: rgb(38, 50, 56); transform-origin: 113.697px 327.821px;" id="elzh8tmpgff2" class="animable"></path><g id="elo8u8vpllqh"><path d="M111,324.59l2.39.36a.62.62,0,0,1,.19.07l3.18,1.73a.57.57,0,0,1,.15.88l-2.76,3.15a.78.78,0,0,1-.71.27l-2.15-.33a.78.78,0,0,1-.67-.73l-.28-4.8A.58.58,0,0,1,111,324.59Z" style="fill: rgb(255, 255, 255); opacity: 0.5; transform-origin: 113.697px 327.821px;" class="animable"></path></g><rect x="153.81" y="307.39" width="34.96" height="20.36" style="fill: rgb(38, 50, 56); transform-origin: 171.29px 317.57px;" id="elrr4byjb9jt" class="animable"></rect><g id="elxuh477g9uuh"><rect x="153.81" y="307.39" width="34.96" height="20.36" style="fill: rgb(255, 255, 255); opacity: 0.2; transform-origin: 171.29px 317.57px;" class="animable"></rect></g><g id="elp6j6lyv95po"><rect x="156.38" y="309.51" width="1.76" height="1.76" style="fill: rgb(255, 255, 255); opacity: 0.2; transform-origin: 157.26px 310.39px;" class="animable"></rect></g><g id="elx9bzpno8ohm"><rect x="159.14" y="309.51" width="1.76" height="1.76" style="fill: rgb(255, 255, 255); opacity: 0.2; transform-origin: 160.02px 310.39px;" class="animable"></rect></g><g id="elydclsy9ixjj"><rect x="161.9" y="309.51" width="1.76" height="1.76" style="fill: rgb(255, 255, 255); opacity: 0.2; transform-origin: 162.78px 310.39px;" class="animable"></rect></g><g id="el5i1yr2l4m7o"><rect x="156.38" y="312.17" width="1.76" height="1.76" style="fill: rgb(255, 255, 255); opacity: 0.2; transform-origin: 157.26px 313.05px;" class="animable"></rect></g><g id="eltayp2mj3ebc"><rect x="159.14" y="312.17" width="1.76" height="1.76" style="fill: rgb(255, 255, 255); opacity: 0.2; transform-origin: 160.02px 313.05px;" class="animable"></rect></g><g id="elrnnptmx3gn"><rect x="161.9" y="312.17" width="1.76" height="1.76" style="fill: rgb(255, 255, 255); opacity: 0.2; transform-origin: 162.78px 313.05px;" class="animable"></rect></g><g id="elf1q9ymjcp7c"><rect x="156.38" y="314.83" width="1.76" height="1.76" style="fill: rgb(255, 255, 255); opacity: 0.2; transform-origin: 157.26px 315.71px;" class="animable"></rect></g><g id="elcr9rpz2m1o"><rect x="159.14" y="314.83" width="1.76" height="1.76" style="fill: rgb(255, 255, 255); opacity: 0.2; transform-origin: 160.02px 315.71px;" class="animable"></rect></g><g id="el44l0toitim2"><rect x="161.9" y="314.83" width="1.76" height="1.76" style="fill: rgb(255, 255, 255); opacity: 0.2; transform-origin: 162.78px 315.71px;" class="animable"></rect></g><g id="el7ooyjeicj1s"><rect x="156.38" y="317.49" width="1.76" height="1.76" style="fill: rgb(255, 255, 255); opacity: 0.2; transform-origin: 157.26px 318.37px;" class="animable"></rect></g><g id="elwst8z95r9eh"><rect x="159.14" y="317.49" width="1.76" height="1.76" style="fill: rgb(255, 255, 255); opacity: 0.2; transform-origin: 160.02px 318.37px;" class="animable"></rect></g><g id="eluu0y5sg7xqa"><rect x="161.9" y="317.49" width="1.76" height="1.76" style="fill: rgb(255, 255, 255); opacity: 0.2; transform-origin: 162.78px 318.37px;" class="animable"></rect></g><g id="elk803w2jszcd"><rect x="164.59" y="309.51" width="2.72" height="1.76" style="fill: rgb(255, 255, 255); opacity: 0.2; transform-origin: 165.95px 310.39px;" class="animable"></rect></g><g id="elzytilx2rw3"><rect x="164.59" y="312.17" width="2.72" height="1.76" style="fill: rgb(255, 255, 255); opacity: 0.2; transform-origin: 165.95px 313.05px;" class="animable"></rect></g><g id="elb2fx9hham6"><rect x="164.59" y="314.83" width="2.72" height="1.76" style="fill: rgb(255, 255, 255); opacity: 0.2; transform-origin: 165.95px 315.71px;" class="animable"></rect></g><g id="el6f7palr1i6u"><polygon points="160.33 320.15 159.14 320.15 156.38 320.15 156.38 321.9 159.14 321.9 160.33 321.9 160.9 321.9 160.9 320.15 160.33 320.15" style="fill: rgb(255, 255, 255); opacity: 0.2; transform-origin: 158.64px 321.025px;" class="animable"></polygon></g><g id="el15jf7bcy7xq"><rect x="161.9" y="320.15" width="1.76" height="1.76" style="fill: rgb(255, 255, 255); opacity: 0.2; transform-origin: 162.78px 321.03px;" class="animable"></rect></g><g id="eluvsb4m2vufe"><polygon points="164.59 317.49 164.59 320.15 164.59 320.62 164.59 321.9 167.31 321.9 167.31 320.62 167.31 320.15 167.31 317.49 164.59 317.49" style="fill: rgb(255, 255, 255); opacity: 0.2; transform-origin: 165.95px 319.695px;" class="animable"></polygon></g><g id="elzrz7pk6edse"><rect x="175.71" y="309.51" width="1.76" height="1.76" style="fill: rgb(255, 255, 255); opacity: 0.2; transform-origin: 176.59px 310.39px;" class="animable"></rect></g><g id="elherynfnb9k"><rect x="178.47" y="309.51" width="1.76" height="1.76" style="fill: rgb(255, 255, 255); opacity: 0.2; transform-origin: 179.35px 310.39px;" class="animable"></rect></g><g id="elt9x0lv8d0f"><rect x="181.24" y="309.51" width="1.76" height="1.76" style="fill: rgb(255, 255, 255); opacity: 0.2; transform-origin: 182.12px 310.39px;" class="animable"></rect></g><g id="elircy88lzm9a"><rect x="175.71" y="312.17" width="1.76" height="1.76" style="fill: rgb(255, 255, 255); opacity: 0.2; transform-origin: 176.59px 313.05px;" class="animable"></rect></g><g id="elzae0i1rhty"><rect x="178.47" y="312.17" width="1.76" height="1.76" style="fill: rgb(255, 255, 255); opacity: 0.2; transform-origin: 179.35px 313.05px;" class="animable"></rect></g><g id="el1wnpul7w2fm"><rect x="181.24" y="312.17" width="1.76" height="1.76" style="fill: rgb(255, 255, 255); opacity: 0.2; transform-origin: 182.12px 313.05px;" class="animable"></rect></g><g id="elgpfifh6vih7"><rect x="175.71" y="314.83" width="1.76" height="1.76" style="fill: rgb(255, 255, 255); opacity: 0.2; transform-origin: 176.59px 315.71px;" class="animable"></rect></g><g id="ele9fxphrk7ob"><rect x="178.47" y="314.83" width="1.76" height="1.76" style="fill: rgb(255, 255, 255); opacity: 0.2; transform-origin: 179.35px 315.71px;" class="animable"></rect></g><g id="el47jzs1dk49d"><rect x="181.24" y="314.83" width="1.76" height="1.76" style="fill: rgb(255, 255, 255); opacity: 0.2; transform-origin: 182.12px 315.71px;" class="animable"></rect></g><g id="el27or6aklv61"><rect x="175.71" y="317.49" width="1.76" height="1.76" style="fill: rgb(255, 255, 255); opacity: 0.2; transform-origin: 176.59px 318.37px;" class="animable"></rect></g><g id="ela225aspca7w"><rect x="178.47" y="317.49" width="1.76" height="1.76" style="fill: rgb(255, 255, 255); opacity: 0.2; transform-origin: 179.35px 318.37px;" class="animable"></rect></g><g id="elwwyft7nozbk"><rect x="181.24" y="317.49" width="1.76" height="1.76" style="fill: rgb(255, 255, 255); opacity: 0.2; transform-origin: 182.12px 318.37px;" class="animable"></rect></g><g id="elklw3w6bdyek"><rect x="183.93" y="309.51" width="2.72" height="1.76" style="fill: rgb(255, 255, 255); opacity: 0.2; transform-origin: 185.29px 310.39px;" class="animable"></rect></g><g id="el5r7m5e72uyb"><rect x="183.93" y="312.17" width="2.72" height="1.76" style="fill: rgb(255, 255, 255); opacity: 0.2; transform-origin: 185.29px 313.05px;" class="animable"></rect></g><g id="els84yluxicq"><rect x="183.93" y="314.83" width="2.72" height="1.76" style="fill: rgb(255, 255, 255); opacity: 0.2; transform-origin: 185.29px 315.71px;" class="animable"></rect></g><g id="eljo6p9cxkldq"><polygon points="179.67 320.15 178.47 320.15 175.71 320.15 175.71 321.9 178.47 321.9 179.67 321.9 180.23 321.9 180.23 320.15 179.67 320.15" style="fill: rgb(255, 255, 255); opacity: 0.2; transform-origin: 177.97px 321.025px;" class="animable"></polygon></g><g id="elut130pm2j8o"><rect x="181.24" y="320.15" width="1.76" height="1.76" style="fill: rgb(255, 255, 255); opacity: 0.2; transform-origin: 182.12px 321.03px;" class="animable"></rect></g><g id="elpa4yya12di"><polygon points="183.93 317.49 183.93 320.15 183.93 320.62 183.93 321.9 186.65 321.9 186.65 320.62 186.65 320.15 186.65 317.49 183.93 317.49" style="fill: rgb(255, 255, 255); opacity: 0.2; transform-origin: 185.29px 319.695px;" class="animable"></polygon></g><g id="el7n52usmnfe"><rect x="169.19" y="309.51" width="4.56" height="3.99" style="opacity: 0.2; transform-origin: 171.47px 311.505px;" class="animable"></rect></g><g id="elp7sbs3qdmk"><rect x="169.19" y="314.83" width="4.56" height="3.99" style="opacity: 0.2; transform-origin: 171.47px 316.825px;" class="animable"></rect></g><g id="ela2d210352va"><rect x="156.36" y="322.93" width="10.95" height="3.24" style="opacity: 0.2; transform-origin: 161.835px 324.55px;" class="animable"></rect></g><g id="eljhsycge9bf"><rect x="175.71" y="322.93" width="10.95" height="3.24" style="opacity: 0.2; transform-origin: 181.185px 324.55px;" class="animable"></rect></g><g id="elfu9ipwx4yk8"><rect x="153.81" y="328.49" width="34.96" height="87.26" style="fill: rgb(255, 255, 255); opacity: 0.2; transform-origin: 171.29px 372.12px;" class="animable"></rect></g><g id="elauvvieucfo"><rect x="153.81" y="282.34" width="31.48" height="20.9" style="fill: rgb(255, 255, 255); opacity: 0.7; transform-origin: 169.55px 292.79px;" class="animable"></rect></g><g id="el4hhooljnjz7"><polygon points="188.76 280.38 185.29 282.34 185.29 303.24 188.76 304.76 188.76 280.38" style="fill: rgb(255, 255, 255); opacity: 0.2; transform-origin: 187.025px 292.57px;" class="animable"></polygon></g><g id="el0w78j9mxxto"><rect x="145.95" y="272.78" width="1.77" height="142.97" style="opacity: 0.2; transform-origin: 146.835px 344.265px;" class="animable"></rect></g><g id="elgirgo02utu"><polygon points="154.7 206.08 154.7 219.25 141.52 219.25 154.7 206.08" style="fill: rgb(255, 255, 255); opacity: 0.6; transform-origin: 148.11px 212.665px;" class="animable"></polygon></g><polygon points="141.52 206.08 141.52 219.25 154.7 206.08 141.52 206.08" style="fill: rgb(207, 216, 220); transform-origin: 148.11px 212.665px;" id="elrg9r4d41kfj" class="animable"></polygon><g id="elpq761vk06kq"><polygon points="141.52 219.25 154.7 219.25 141.52 206.08 141.52 219.25" style="opacity: 0.2; transform-origin: 148.11px 212.665px;" class="animable"></polygon></g><polygon points="209.8 201.96 137.41 240.09 209.8 240.09 209.8 201.96" style="fill: rgb(207, 216, 220); transform-origin: 173.605px 221.025px;" id="elc7kar0hibk" class="animable"></polygon><g id="el4h8oovg1221"><polygon points="209.8 201.96 137.41 240.09 209.8 240.09 209.8 201.96" style="opacity: 0.2; transform-origin: 173.605px 221.025px;" class="animable"></polygon></g><g id="eli8qvxx9jsf"><polygon points="209.8 240.09 155.07 230.79 209.8 201.96 209.8 240.09" style="opacity: 0.2; transform-origin: 182.435px 221.025px;" class="animable"></polygon></g><g id="elpq681m60q6s"><rect x="196.48" y="222.16" width="8.87" height="4.18" rx="1.08" style="fill: rgb(255, 255, 255); opacity: 0.5; transform-origin: 200.915px 224.25px;" class="animable"></rect></g><g id="el13q03n3hdvyk"><path d="M204.28,230.4h-16a1.08,1.08,0,0,1-1.08-1.08h0a1.08,1.08,0,0,1,1.08-1.08h16a1.08,1.08,0,0,1,1.07,1.08h0A1.08,1.08,0,0,1,204.28,230.4Z" style="fill: rgb(255, 255, 255); opacity: 0.5; transform-origin: 196.275px 229.32px;" class="animable"></path></g><g id="el8r1wflotdi7"><polygon points="202.93 240.09 186.67 254.08 186.67 240.09 202.93 240.09" style="opacity: 0.2; transform-origin: 194.8px 247.085px;" class="animable"></polygon></g><g id="elw1mcg7tpja"><polygon points="198.39 264.68 202.93 415.75 198.39 415.75 198.39 264.68" style="opacity: 0.2; transform-origin: 200.66px 340.215px;" class="animable"></polygon></g></g><g id="freepik--Plant--inject-1" class="animable" style="transform-origin: 86.0047px 376.811px;"><path d="M87.78,399.53s-4-8.79.57-17.47,6-10.71,3-12.49-4.28,6.94-4.28,6.94a19.59,19.59,0,0,1-.44-12.27c2-6.27,3.33-16.49.54-17.59s-.53,12.75-3,17.47a41,41,0,0,1-2.37-10.3c-.33-5,.19-13.08-2-15.15s-3.62-.63-1.45,10.49a117.06,117.06,0,0,1,2.15,20.16s-4.79-14.59-8-15-3.21,4.3-.46,8.39,8,11.44,8.92,15.22c0,0-5.25-11-10-7.61s4.11,10,8,12.39,6.67,17.42,6.67,17.42Z" style="fill: rgb(207, 216, 220); transform-origin: 81.2611px 369.001px;" id="el3l7qmpaxqkf" class="animable"></path><g id="elqeptqpj2kj"><path d="M87.78,399.53s-4-8.79.57-17.47,6-10.71,3-12.49-4.28,6.94-4.28,6.94a19.59,19.59,0,0,1-.44-12.27c2-6.27,3.33-16.49.54-17.59s-.53,12.75-3,17.47a41,41,0,0,1-2.37-10.3c-.33-5,.19-13.08-2-15.15s-3.62-.63-1.45,10.49a117.06,117.06,0,0,1,2.15,20.16s-4.79-14.59-8-15-3.21,4.3-.46,8.39,8,11.44,8.92,15.22c0,0-5.25-11-10-7.61s4.11,10,8,12.39,6.67,17.42,6.67,17.42Z" style="isolation: isolate; opacity: 0.2; transform-origin: 81.2611px 369.001px;" class="animable"></path></g><path d="M84.6,403.14s3.92-8.85-.79-17.46-6.07-10.62-3.15-12.44S85,380.11,85,380.11a19.57,19.57,0,0,0,.29-12.28c-2.12-6.24-3.53-16.44-.75-17.58s.69,12.74,3.17,17.43A40.71,40.71,0,0,0,90,357.35c.28-5.05-.34-13.09,1.84-15.18s3.61-.69,1.57,10.46a116.84,116.84,0,0,0-1.91,20.19s4.61-14.66,7.82-15.13,3.26,4.25.56,8.39-7.91,11.56-8.74,15.35c0,0,5.12-11.06,9.89-7.76s-4,10.05-7.9,12.51-6.47,17.51-6.47,17.51Z" style="fill: rgb(207, 216, 220); transform-origin: 90.7709px 372.522px;" id="elfarxn9hjjog" class="animable"></path><polygon points="97.8 398.99 74.38 398.99 76.28 415.75 95.91 415.75 97.8 398.99" style="fill: rgb(38, 50, 56); transform-origin: 86.09px 407.37px;" id="eleu3v9ogfrrs" class="animable"></polygon></g><g id="freepik--Vehicle--inject-1" class="animable animator-active" style="transform-origin: 340.209px 358.343px;"><path d="M362.71,371.9h-7.89c-8.76,0-15.86,9.82-15.86,21.93s7.1,21.92,15.86,21.92h7.89c8.76,0,15.86-9.82,15.86-21.92S371.47,371.9,362.71,371.9Z" id="ely0t5bw0xuqo" class="animable" style="transform-origin: 358.765px 393.825px;"></path><g id="el5ldxq13fh5l"><path d="M365.19,373.46c-7.32,0-13.25,9.12-13.25,20.37s5.93,20.36,13.25,20.36,13.26-9.11,13.26-20.36S372.51,373.46,365.19,373.46Z" style="fill: rgb(255, 255, 255); opacity: 0.1; transform-origin: 365.195px 393.825px;" class="animable"></path></g><g id="el6q5v66heyvk"><path d="M366.34,382.82c-4,0-7.16,4.93-7.16,11s3.2,11,7.16,11,7.16-4.92,7.16-11S370.3,382.82,366.34,382.82Z" style="fill: rgb(38, 50, 56); opacity: 0.6; transform-origin: 366.34px 393.82px;" class="animable"></path></g><path d="M272,371.9h-7.89c-8.76,0-15.86,9.82-15.86,21.93s7.1,21.92,15.86,21.92H272c8.76,0,15.86-9.82,15.86-21.92S280.73,371.9,272,371.9Z" id="elypu1481cr5" class="animable" style="transform-origin: 268.055px 393.825px;"></path><g id="elwqri9sf3fh"><path d="M274.45,373.46c-7.32,0-13.25,9.12-13.25,20.37s5.93,20.36,13.25,20.36,13.26-9.11,13.26-20.36S281.77,373.46,274.45,373.46Z" style="fill: rgb(255, 255, 255); opacity: 0.1; transform-origin: 274.455px 393.825px;" class="animable"></path></g><g id="elgfu56ssxknn"><path d="M275.6,382.82c-4,0-7.16,4.93-7.16,11s3.2,11,7.16,11,7.16-4.92,7.16-11S279.56,382.82,275.6,382.82Z" style="fill: rgb(38, 50, 56); opacity: 0.6; transform-origin: 275.6px 393.82px;" class="animable"></path></g><path d="M434.34,370.06l.11,22.56a6.52,6.52,0,0,1-6.52,6.55h-57.5a25.76,25.76,0,0,1-18.34,7.68h-36.8l-4.19-6.28h-8.38l-1.11,1.05a16.59,16.59,0,0,1-11.39,4.53h0a16.6,16.6,0,0,1-11.93-5.06l-.51-.52H258.64a6.5,6.5,0,0,1-6.41-5.39l-5.12-29.39Z" id="elg3gnlppjcz" class="animable" style="transform-origin: 340.78px 386.32px;"></path><path d="M438.4,390.31a4.44,4.44,0,0,1-1.19,3.2c-.66-14.65-9.53-26.25-20.36-26.25-11.19,0-20.27,12.36-20.4,27.68H361.87c-.14-15.32-9.21-27.68-20.4-27.68s-20.28,12.36-20.41,27.68h-75.4a2.44,2.44,0,0,1-2.23-1.45c-2.82-6.53-5.48-16.43-1.81-19,0,0,.29-1.41,1-3.56.25-.79.55-1.68.91-2.62s.69-1.69,1.09-2.59c.3-.64.61-1.3,1-2a34,34,0,0,1,4.16-6.34c.8-1,1.62-1.87,2.47-2.75.28-.27.54-.55.82-.83.75-.76,1.52-1.48,2.3-2.17a74.45,74.45,0,0,1,23.51-14s14.91-26.94,26.51-32.38c11.05-5.19,79.39-5.91,95.29-1a12.21,12.21,0,0,1,1.94.77c7.85,4.12,13.6,21.41,16.27,31,1.09,3.9,1.66,6.54,1.66,6.54S437.1,353.6,438.4,390.31Z" style="fill: rgb(38, 50, 56); transform-origin: 339.116px 347.938px;" id="eld7drjukhhod" class="animable"></path><g id="elf81zk6vih9"><path d="M438.4,390.31a4.44,4.44,0,0,1-1.19,3.2c-.66-14.65-9.53-26.25-20.36-26.25-11.19,0-20.27,12.36-20.4,27.68H361.87c-.14-15.32-9.21-27.68-20.4-27.68s-20.28,12.36-20.41,27.68h-75.4a2.44,2.44,0,0,1-2.23-1.45c-2.82-6.53-5.48-16.43-1.81-19,0,0,.29-1.41,1-3.56.25-.79.55-1.68.91-2.62s.69-1.69,1.09-2.59c.3-.64.61-1.3,1-2a34,34,0,0,1,4.16-6.34c.8-1,1.62-1.87,2.47-2.75.28-.27.54-.55.82-.83.75-.76,1.52-1.48,2.3-2.17a74.45,74.45,0,0,1,23.51-14s14.91-26.94,26.51-32.38c11.05-5.19,79.39-5.91,95.29-1a12.21,12.21,0,0,1,1.94.77c7.85,4.12,13.6,21.41,16.27,31,1.09,3.9,1.66,6.54,1.66,6.54S437.1,353.6,438.4,390.31Z" style="fill: rgb(255, 255, 255); opacity: 0.5; transform-origin: 339.116px 347.938px;" class="animable"></path></g><path d="M341.77,371.9h-7.89c-8.76,0-15.86,9.82-15.86,21.93s7.1,21.92,15.86,21.92h7.89c8.76,0,15.86-9.82,15.86-21.92S350.53,371.9,341.77,371.9Z" id="el763g2grjfnr" class="animable" style="transform-origin: 337.825px 393.825px;"></path><g id="el79zn8s725jy"><path d="M344.25,373.46c-7.32,0-13.25,9.12-13.25,20.37s5.93,20.36,13.25,20.36,13.26-9.11,13.26-20.36S351.57,373.46,344.25,373.46Z" style="fill: rgb(255, 255, 255); opacity: 0.2; transform-origin: 344.255px 393.825px;" class="animable"></path></g><g id="elu5owjywzgx"><path d="M345.4,382.82c-4,0-7.16,4.93-7.16,11s3.2,11,7.16,11,7.16-4.92,7.16-11S349.36,382.82,345.4,382.82Z" style="fill: rgb(255, 255, 255); opacity: 0.2; transform-origin: 345.4px 393.82px;" class="animable"></path></g><path d="M342.7,388.32c-2,0-3.58,2.47-3.58,5.51s1.6,5.5,3.58,5.5,3.58-2.46,3.58-5.5S344.68,388.32,342.7,388.32Z" style="fill: rgb(38, 50, 56); transform-origin: 342.7px 393.825px;" id="elab7ec4ddsvb" class="animable"></path><path d="M355.3,305.72l-11.74,32s-51.76,2.47-61.71,0c0,0,11.4-21.68,21.4-28S355.3,305.72,355.3,305.72Z" style="fill: rgb(207, 216, 220); transform-origin: 318.575px 322.061px;" id="el5eh4ey8uouj" class="animable"></path><path d="M415.76,371.9h-7.89c-8.76,0-15.86,9.82-15.86,21.93s7.1,21.92,15.86,21.92h7.89c8.76,0,15.86-9.82,15.86-21.92S424.52,371.9,415.76,371.9Z" id="eljq1za9pr4r" class="animable" style="transform-origin: 411.815px 393.825px;"></path><g id="elvdsny2w499"><path d="M418.24,373.46c-7.32,0-13.25,9.12-13.25,20.37s5.93,20.36,13.25,20.36,13.25-9.11,13.25-20.36S425.56,373.46,418.24,373.46Z" style="fill: rgb(255, 255, 255); opacity: 0.2; transform-origin: 418.24px 393.825px;" class="animable"></path></g><g id="eljztf5emiy8"><path d="M419.39,382.82c-4,0-7.17,4.93-7.17,11s3.21,11,7.17,11,7.16-4.92,7.16-11S423.34,382.82,419.39,382.82Z" style="fill: rgb(255, 255, 255); opacity: 0.2; transform-origin: 419.385px 393.82px;" class="animable"></path></g><path d="M416.65,388.32c-1.88,0-3.41,2.35-3.41,5.25s1.53,5.25,3.41,5.25,3.42-2.35,3.42-5.25S418.54,388.32,416.65,388.32Z" style="fill: rgb(38, 50, 56); transform-origin: 416.655px 393.57px;" id="elvsrhh1bneym" class="animable"></path><g id="el8ssrqllzvgy"><path d="M355.3,305.72l-11.74,32s-51.76,2.47-61.71,0c0,0,11.4-21.68,21.4-28S355.3,305.72,355.3,305.72Z" style="opacity: 0.4; transform-origin: 318.575px 322.061px;" class="animable"></path></g><path d="M350.19,335.52s8.36-29.62,10.29-30.2,32.65-1,39.83,2,13.47,26.94,13.47,26.94S359.61,330.25,350.19,335.52Z" style="fill: rgb(207, 216, 220); transform-origin: 381.985px 320.213px;" id="el6ytlf35094w" class="animable"></path><g id="el5v3st4qbhgo"><path d="M350.19,335.52s8.36-29.62,10.29-30.2,32.65-1,39.83,2,13.47,26.94,13.47,26.94S359.61,330.25,350.19,335.52Z" style="opacity: 0.4; transform-origin: 381.985px 320.213px;" class="animable"></path></g><g id="el4p2ylhwhqo3"><path d="M311.45,379l-3.13,15.92h12.74c.14-15.32,9.22-27.68,20.41-27.68s20.27,12.36,20.4,27.68h34.58c.13-15.32,9.21-27.68,20.4-27.68,10.83,0,19.7,11.6,20.36,26.24a4.42,4.42,0,0,0,1.19-3.2c-1.3-36.7-17.92-47.61-17.92-47.61s-6.92-31.78-17.93-37.56a11.33,11.33,0,0,0-1.94-.77c-12.74-1-39.28-2.87-41-1.47-2.26,1.83-14.21,37.28-14.21,37.28-24.87,7.29-31,34.36-31,34.36l-7.06,2.62Z" style="isolation: isolate; opacity: 0.1; transform-origin: 372.872px 348.644px;" class="animable"></path></g><g id="el0zwlanspp4s"><path d="M292.24,375.9,286,364.66a4,4,0,0,0-3.52-2.07H260.88a4,4,0,0,0-3.41,1.88l-7.69,12.24a4,4,0,0,0-.23,3.86l1.94,4.07a4,4,0,0,0,3.63,2.3h28.4a4,4,0,0,0,2.81-1.14l5.2-5.08A4,4,0,0,0,292.24,375.9Z" style="opacity: 0.3; transform-origin: 270.953px 374.765px;" class="animable"></path></g><path d="M289.41,377.11H253.84a1,1,0,0,0-.48.11l-1,.5a1.09,1.09,0,0,0-.51,1.43l2.4,5.19a1.09,1.09,0,0,0,1,.63h29.54a1.11,1.11,0,0,0,.84-.4l4.67-5.69a1.1,1.1,0,0,0,.25-.69h0A1.08,1.08,0,0,0,289.41,377.11Z" style="fill: rgb(38, 50, 56); transform-origin: 271.151px 381.039px;" id="elbpd5tajisot" class="animable"></path><g id="el0sessjwr9t6"><path d="M241.62,374.53h8.47L242.6,371C241.91,373.11,241.62,374.53,241.62,374.53Z" style="opacity: 0.2; transform-origin: 245.855px 372.765px;" class="animable"></path></g><path d="M314.39,394.94h5.41a5.1,5.1,0,0,0,5-3.93c1.41-5.94,5.51-16.77,17-19.11,12.1-2.46,16.1,11.94,17.33,19.14a4.69,4.69,0,0,0,4.62,3.9H365s0-35.11-25.31-32.35c-17.86,1.94-22.9,28.55-22.9,28.55Z" style="fill: rgb(38, 50, 56); transform-origin: 339.695px 378.688px;" id="el9yfrcnj99nu" class="animable"></path><g id="el30ljlwxv61a"><path d="M314.39,394.94h5.41a5.1,5.1,0,0,0,5-3.93c1.41-5.94,5.51-16.77,17-19.11,12.1-2.46,16.1,11.94,17.33,19.14a4.69,4.69,0,0,0,4.62,3.9H365s0-35.11-25.31-32.35c-17.86,1.94-22.9,28.55-22.9,28.55Z" style="fill: rgb(255, 255, 255); opacity: 0.5; transform-origin: 339.695px 378.688px;" class="animable"></path></g><g id="elxx9yi26edvm"><path d="M314.39,394.94h5.41a5.1,5.1,0,0,0,5-3.93c1.41-5.94,5.51-16.77,17-19.11,12.1-2.46,16.1,11.94,17.33,19.14a4.69,4.69,0,0,0,4.62,3.9H365s0-35.11-25.31-32.35c-17.86,1.94-22.9,28.55-22.9,28.55Z" style="isolation: isolate; opacity: 0.2; transform-origin: 339.695px 378.688px;" class="animable"></path></g><path d="M388.38,394.94h5.4a5.12,5.12,0,0,0,5-3.93c1.4-5.94,5.51-16.77,17-19.11,12.09-2.46,16.1,11.94,17.33,19.14a4.69,4.69,0,0,0,4.62,3.9H439s0-35.11-25.31-32.35c-17.85,1.94-22.9,28.55-22.9,28.55Z" style="fill: rgb(38, 50, 56); transform-origin: 413.69px 378.688px;" id="elrebys362zb9" class="animable"></path><g id="el689t90eamue"><path d="M388.38,394.94h5.4a5.12,5.12,0,0,0,5-3.93c1.4-5.94,5.51-16.77,17-19.11,12.09-2.46,16.1,11.94,17.33,19.14a4.69,4.69,0,0,0,4.62,3.9H439s0-35.11-25.31-32.35c-17.85,1.94-22.9,28.55-22.9,28.55Z" style="fill: rgb(255, 255, 255); opacity: 0.5; transform-origin: 413.69px 378.688px;" class="animable"></path></g><g id="elli3xmojqay"><path d="M388.38,394.94h5.4a5.12,5.12,0,0,0,5-3.93c1.4-5.94,5.51-16.77,17-19.11,12.09-2.46,16.1,11.94,17.33,19.14a4.69,4.69,0,0,0,4.62,3.9H439s0-35.11-25.31-32.35c-17.85,1.94-22.9,28.55-22.9,28.55Z" style="isolation: isolate; opacity: 0.2; transform-origin: 413.69px 378.688px;" class="animable"></path></g><g id="el1cuw47h62kt"><path d="M384.29,304.9s3.87,10.32,5.34,29.62l1.39.67s4.52,20.9,0,38.27c0,0,2-16-1.57-37.47l-1.07-.85s-1.71-17.86-5.39-30.24Z" style="opacity: 0.3; transform-origin: 388.009px 339.18px;" class="animable"></path></g><g id="elo1njoiko7gf"><path d="M347.81,337.7a107.32,107.32,0,0,1,1,23.12,106.84,106.84,0,0,0,.2-23.12Z" style="opacity: 0.3; transform-origin: 348.676px 349.26px;" class="animable"></path></g><path d="M348.81,338.72c-1.6-1.36,2.45-6.9,2.45-6.9h4a45.45,45.45,0,0,0,4.31-1.89c.93-.59,7.8-1.26,7.68,0s.62,5.34-.85,6.06-9.76,0-9.76,0S350.49,340.13,348.81,338.72Z" style="fill: rgb(38, 50, 56); transform-origin: 357.884px 334.114px;" id="el4psjw65qso7" class="animable"></path><g id="elrxne1pmwal"><path d="M349.76,336.4c1.5,1.27,7.05-2.44,7.05-2.44s7.42.64,8.74,0c1.08-.53.82-3.12.76-4.63-1.91-.34-6,.15-6.7.6a45.45,45.45,0,0,1-4.31,1.89h-4a24.79,24.79,0,0,0-1.58,2.48C349.37,335.2,349.29,336,349.76,336.4Z" style="fill: rgb(255, 255, 255); opacity: 0.2; transform-origin: 357.907px 332.941px;" class="animable"></path></g><g id="elbapp1qqj2lh"><path d="M324.09,307.43S308.61,322.82,306,333c0,0,2-10.34,5.41-16.47A59,59,0,0,0,299,336.66s-10.74.43-14.64-.67c0,0,14.94-22,21.71-25.61S324.09,307.43,324.09,307.43Z" style="fill: rgb(255, 255, 255); opacity: 0.4; transform-origin: 304.225px 322.063px;" class="animable"></path></g><path d="M388.18,344.45h0a2,2,0,0,1-2,2.16H383a2,2,0,0,1-2-2h0a2,2,0,0,1,2-2h3.26A2,2,0,0,1,388.18,344.45Z" style="fill: rgb(38, 50, 56); transform-origin: 384.593px 344.61px;" id="ela51gyqb9wi" class="animable"></path><path d="M298.14,370.06s-2.82-4.55-2.25-7.47,25.08-10.48,26.78-10.88,3.8,3,3.8,4.91-8.36,11.61-10.35,12.55S298.14,370.06,298.14,370.06Z" style="fill: rgb(207, 216, 220); transform-origin: 311.142px 360.869px;" id="el75wi0mbfiwk" class="animable"></path><g id="elfzqlze6dplv"><path d="M298.14,370.06s-2.82-4.55-2.25-7.47,25.08-10.48,26.78-10.88,3.8,3,3.8,4.91-8.36,11.61-10.35,12.55S298.14,370.06,298.14,370.06Z" style="fill: rgb(255, 255, 255); opacity: 0.7; transform-origin: 311.142px 360.869px;" class="animable"></path></g><g id="el34futo5dxra"><path d="M318.29,362.08c-.72,3.17-3.5,5.73-6.21,5.73s-4.32-2.56-3.59-5.73,3.5-5.74,6.21-5.74S319,358.91,318.29,362.08Z" style="fill: rgb(255, 255, 255); opacity: 0.6; transform-origin: 313.387px 362.075px;" class="animable"></path></g><g id="elr1ymzz7gmkl"><path d="M304.09,365.08a4.28,4.28,0,0,1-3.71,3.42c-1.61,0-2.57-1.54-2.14-3.42a4.26,4.26,0,0,1,3.71-3.42C303.56,361.66,304.52,363.19,304.09,365.08Z" style="fill: rgb(255, 255, 255); opacity: 0.6; transform-origin: 301.165px 365.08px;" class="animable"></path></g><g id="el98rt53mf1xv"><path d="M324.71,356.47a3.27,3.27,0,0,1-2.85,2.63c-1.24,0-2-1.17-1.65-2.63a3.28,3.28,0,0,1,2.85-2.62C324.3,353.85,325,355,324.71,356.47Z" style="fill: rgb(255, 255, 255); opacity: 0.6; transform-origin: 322.45px 356.475px;" class="animable"></path></g><path d="M255.55,360.05c.12,1.39-4.94,8.1-4.94,8.1a46.15,46.15,0,0,1-6-2.39c.3-.64.61-1.3,1-2,.16-.32.33-.63.5-.95a33.72,33.72,0,0,1,3.66-5.39c.54-.65,1.09-1.28,1.67-1.89.26-.29.53-.58.8-.86C253.36,356.23,255.46,359.05,255.55,360.05Z" style="fill: rgb(207, 216, 220); transform-origin: 250.081px 361.41px;" id="el21fxv5kq83o" class="animable"></path><g id="elvhtp99kq44"><path d="M255.55,360.05c.12,1.39-4.94,8.1-4.94,8.1a46.15,46.15,0,0,1-6-2.39c.3-.64.61-1.3,1-2,.16-.32.33-.63.5-.95a33.72,33.72,0,0,1,3.66-5.39c.54-.65,1.09-1.28,1.67-1.89.26-.29.53-.58.8-.86C253.36,356.23,255.46,359.05,255.55,360.05Z" style="fill: rgb(255, 255, 255); opacity: 0.7; transform-origin: 250.081px 361.41px;" class="animable"></path></g><g id="el243wtnx51ft"><path d="M253.26,362.5c-.7,1.72-2.12,3.4-3.15,3.77s-1.31-.73-.61-2.45,2.12-3.4,3.15-3.77S254,360.78,253.26,362.5Z" style="fill: rgb(255, 255, 255); opacity: 0.6; transform-origin: 251.389px 363.16px;" class="animable"></path></g><g id="el6wcq79qf79n"><path d="M251.05,358.35c-.88,2.16-2.65,4.27-3.94,4.72-.49.17-.86.09-1.06-.22a33.72,33.72,0,0,1,3.66-5.39c.54-.65,1.09-1.28,1.67-1.89A3.57,3.57,0,0,1,251.05,358.35Z" style="fill: rgb(255, 255, 255); opacity: 0.6; transform-origin: 248.787px 359.364px;" class="animable"></path></g><g id="elwkosx7yr65"><path d="M294.53,388.91l2-3.09A1.82,1.82,0,0,1,298,385h7.11a1.83,1.83,0,0,1,1.81,2.14l-.55,3.1a1.83,1.83,0,0,1-1.8,1.51h-8.54A1.83,1.83,0,0,1,294.53,388.91Z" style="opacity: 0.2; transform-origin: 300.586px 388.375px;" class="animable"></path></g><g id="elkiguhu2v7km"><path d="M244.35,385h2.06a1.08,1.08,0,0,1,1,.64l2,4.59a1.08,1.08,0,0,1-1,1.52h-2.65a1.08,1.08,0,0,1-1-.76l-1.42-4.59A1.07,1.07,0,0,1,244.35,385Z" style="opacity: 0.2; transform-origin: 246.396px 388.375px;" class="animable"></path></g><g id="el7mkfzs3pljn"><rect x="269.29" y="365.35" width="1.71" height="9.42" style="opacity: 0.5; transform-origin: 270.145px 370.06px;" class="animable"></rect></g><g id="elqkgswyt3uvi"><rect x="272.14" y="365.35" width="1.71" height="9.42" style="opacity: 0.5; transform-origin: 272.995px 370.06px;" class="animable"></rect></g><g id="elm4ygycdovfa"><rect x="274.99" y="365.35" width="1.71" height="9.42" style="opacity: 0.5; transform-origin: 275.845px 370.06px;" class="animable"></rect></g><g id="el7x520ne9uw"><rect x="263.59" y="365.35" width="1.71" height="9.42" style="opacity: 0.5; transform-origin: 264.445px 370.06px;" class="animable"></rect></g><g id="elm68gg33pq4a"><rect x="266.44" y="365.35" width="1.71" height="9.42" style="opacity: 0.5; transform-origin: 267.295px 370.06px;" class="animable"></rect></g><g id="elox4yzl2woy"><polygon points="286.39 370.56 286.39 374.76 288.93 374.76 286.39 370.56" style="opacity: 0.5; transform-origin: 287.66px 372.66px;" class="animable"></polygon></g><g id="elhgg9hljxu8r"><rect x="277.84" y="365.35" width="1.71" height="9.42" style="opacity: 0.5; transform-origin: 278.695px 370.06px;" class="animable"></rect></g><g id="elpq3q0b0fd1"><polygon points="262.45 365.35 261.32 365.35 258.63 374.76 262.45 374.76 262.45 365.35" style="opacity: 0.5; transform-origin: 260.54px 370.055px;" class="animable"></polygon></g><g id="elgjxyuuym5zf"><rect x="280.69" y="365.35" width="1.71" height="9.42" style="opacity: 0.5; transform-origin: 281.545px 370.06px;" class="animable"></rect></g><g id="elb7cgw59ymc"><polygon points="285.25 368.68 283.54 365.86 283.54 374.76 285.25 374.76 285.25 368.68" style="opacity: 0.5; transform-origin: 284.395px 370.31px;" class="animable"></polygon></g><g id="el36rplhv2ti9"><rect x="258.63" y="378.69" width="15.82" height="5.39" style="fill: rgb(255, 255, 255); opacity: 0.6; transform-origin: 266.54px 381.385px;" class="animable"></rect></g><path d="M438.86,394.94h0a1.74,1.74,0,0,1-1.73-1.73v-9.68a1.73,1.73,0,0,1,1.73-1.73h0a1.73,1.73,0,0,1,1.73,1.73v9.68A1.74,1.74,0,0,1,438.86,394.94Z" style="fill: rgb(38, 50, 56); transform-origin: 438.86px 388.37px;" id="elrq0aqlsjsa" class="animable"></path><g id="el125lc6k37es"><path d="M286.39,358s13.25-13.3,36.07-17.28A137.23,137.23,0,0,0,286.39,358Z" style="isolation: isolate; opacity: 0.2; transform-origin: 304.425px 349.36px;" class="animable"></path></g><g id="elo7svtoqu2s"><path d="M262.45,358s6.84-11.78,16.25-17.28C278.7,340.67,264.46,347.48,262.45,358Z" style="isolation: isolate; opacity: 0.2; transform-origin: 270.575px 349.36px;" class="animable"></path></g></g><defs>     <filter id="active" height="200%">         <feMorphology in="SourceAlpha" result="DILATED" operator="dilate" radius="2"></feMorphology>                <feFlood flood-color="#32DFEC" flood-opacity="1" result="PINK"></feFlood>        <feComposite in="PINK" in2="DILATED" operator="in" result="OUTLINE"></feComposite>        <feMerge>            <feMergeNode in="OUTLINE"></feMergeNode>            <feMergeNode in="SourceGraphic"></feMergeNode>        </feMerge>    </filter>    <filter id="hover" height="200%">        <feMorphology in="SourceAlpha" result="DILATED" operator="dilate" radius="2"></feMorphology>                <feFlood flood-color="#ff0000" flood-opacity="0.5" result="PINK"></feFlood>        <feComposite in="PINK" in2="DILATED" operator="in" result="OUTLINE"></feComposite>        <feMerge>            <feMergeNode in="OUTLINE"></feMergeNode>            <feMergeNode in="SourceGraphic"></feMergeNode>        </feMerge>            <feColorMatrix type="matrix" values="0   0   0   0   0                0   1   0   0   0                0   0   0   0   0                0   0   0   1   0 "></feColorMatrix>    </filter></defs></svg>